<svg xmlns="http://www.w3.org/2000/svg" xmlns:xlink="http://www.w3.org/1999/xlink" contentStyleType="text/css" data-diagram-type="CLASS" height="398px" preserveAspectRatio="none" style="width:567px;height:398px;background:#FFFFFF;" version="1.1" viewBox="0 0 567 398" width="567px" zoomAndPan="magnify"><defs/><g><!--class Libro--><g class="entity" data-entity="Libro" data-source-line="1" data-uid="ent0002" id="entity_Libro"><rect fill="#F1F1F1" height="162.0781" rx="2.5" ry="2.5" style="stroke:#181818;stroke-width:0.5;" width="162.2813" x="80.56" y="229.78"/><ellipse cx="140.0019" cy="245.78" fill="#ADD1B2" rx="11" ry="11" style="stroke:#181818;stroke-width:1;"/><path d="M142.9706,251.4206 Q142.3925,251.7175 141.7519,251.8581 Q141.1113,252.0144 140.4081,252.0144 Q137.9081,252.0144 136.58,250.3738 Q135.2675,248.7175 135.2675,245.5925 Q135.2675,242.4675 136.58,240.8113 Q137.9081,239.155 140.4081,239.155 Q141.1113,239.155 141.7519,239.3113 Q142.4081,239.4675 142.9706,239.7644 L142.9706,242.4831 Q142.3456,241.905 141.7519,241.6394 Q141.1581,241.3581 140.5331,241.3581 Q139.1894,241.3581 138.5019,242.4363 Q137.8144,243.4988 137.8144,245.5925 Q137.8144,247.6863 138.5019,248.7644 Q139.1894,249.8269 140.5331,249.8269 Q141.1581,249.8269 141.7519,249.5613 Q142.3456,249.28 142.9706,248.7019 L142.9706,251.4206 Z " fill="#000000"/><text fill="#000000" font-family="sans-serif" font-size="14" lengthAdjust="spacing" textLength="34.8975" x="160.5019" y="250.6267">Libro</text><line style="stroke:#181818;stroke-width:0.5;" x1="81.56" x2="241.8413" y1="261.78" y2="261.78"/><g data-visibility-modifier="PRIVATE_FIELD"><rect fill="none" height="6" style="stroke:#C82930;stroke-width:1;" width="6" x="88.56" y="272.4284"/></g><text fill="#000000" font-family="sans-serif" font-size="14" lengthAdjust="spacing" textLength="87.1445" x="100.56" y="278.7751">titulo: String</text><g data-visibility-modifier="PRIVATE_FIELD"><rect fill="none" height="6" style="stroke:#C82930;stroke-width:1;" width="6" x="88.56" y="288.7253"/></g><text fill="#000000" font-family="sans-serif" font-size="14" lengthAdjust="spacing" textLength="79.8916" x="100.56" y="295.072">isbn: String</text><g data-visibility-modifier="PRIVATE_FIELD"><rect fill="none" height="6" style="stroke:#C82930;stroke-width:1;" width="6" x="88.56" y="305.0222"/></g><text fill="#000000" font-family="sans-serif" font-size="14" lengthAdjust="spacing" textLength="136.2813" x="100.56" y="311.3689">numeroPaginas: int</text><g data-visibility-modifier="PRIVATE_FIELD"><rect fill="none" height="6" style="stroke:#C82930;stroke-width:1;" width="6" x="88.56" y="321.3191"/></g><text fill="#000000" font-family="sans-serif" font-size="14" lengthAdjust="spacing" textLength="100.29" x="100.56" y="327.6657">precio: double</text><line style="stroke:#181818;stroke-width:0.5;" x1="81.56" x2="241.8413" y1="334.9675" y2="334.9675"/><g data-visibility-modifier="PUBLIC_METHOD"><ellipse cx="91.56" cy="348.6159" fill="#84BE84" rx="3" ry="3" style="stroke:#038048;stroke-width:1;"/></g><text fill="#000000" font-family="sans-serif" font-size="14" lengthAdjust="spacing" textLength="76.5898" x="100.56" y="351.9626">leer(): void</text><g data-visibility-modifier="PUBLIC_METHOD"><ellipse cx="91.56" cy="364.9128" fill="#84BE84" rx="3" ry="3" style="stroke:#038048;stroke-width:1;"/></g><text fill="#000000" font-family="sans-serif" font-size="14" lengthAdjust="spacing" textLength="124.1201" x="100.56" y="368.2595">getTitulo(): String</text><g data-visibility-modifier="PUBLIC_METHOD"><ellipse cx="91.56" cy="381.2097" fill="#84BE84" rx="3" ry="3" style="stroke:#038048;stroke-width:1;"/></g><text fill="#000000" font-family="sans-serif" font-size="14" lengthAdjust="spacing" textLength="133.7588" x="100.56" y="384.5564">getPrecio(): double</text></g><!--class Autor--><g class="entity" data-entity="Autor" data-source-line="11" data-uid="ent0003" id="entity_Autor"><rect fill="#F1F1F1" height="145.7813" rx="2.5" ry="2.5" style="stroke:#181818;stroke-width:0.5;" width="309.4111" x="7" y="7"/><ellipse cx="138.3252" cy="23" fill="#ADD1B2" rx="11" ry="11" style="stroke:#181818;stroke-width:1;"/><path d="M141.2939,28.6406 Q140.7158,28.9375 140.0752,29.0781 Q139.4346,29.2344 138.7314,29.2344 Q136.2314,29.2344 134.9033,27.5938 Q133.5908,25.9375 133.5908,22.8125 Q133.5908,19.6875 134.9033,18.0313 Q136.2314,16.375 138.7314,16.375 Q139.4346,16.375 140.0752,16.5313 Q140.7314,16.6875 141.2939,16.9844 L141.2939,19.7031 Q140.6689,19.125 140.0752,18.8594 Q139.4814,18.5781 138.8564,18.5781 Q137.5127,18.5781 136.8252,19.6563 Q136.1377,20.7188 136.1377,22.8125 Q136.1377,24.9063 136.8252,25.9844 Q137.5127,27.0469 138.8564,27.0469 Q139.4814,27.0469 140.0752,26.7813 Q140.6689,26.5 141.2939,25.9219 L141.2939,28.6406 Z " fill="#000000"/><text fill="#000000" font-family="sans-serif" font-size="14" lengthAdjust="spacing" textLength="38.2607" x="158.8252" y="27.8467">Autor</text><line style="stroke:#181818;stroke-width:0.5;" x1="8" x2="315.4111" y1="39" y2="39"/><g data-visibility-modifier="PRIVATE_FIELD"><rect fill="none" height="6" style="stroke:#C82930;stroke-width:1;" width="6" x="15" y="49.6484"/></g><text fill="#000000" font-family="sans-serif" font-size="14" lengthAdjust="spacing" textLength="105.2803" x="27" y="55.9951">nombre: String</text><g data-visibility-modifier="PRIVATE_FIELD"><rect fill="none" height="6" style="stroke:#C82930;stroke-width:1;" width="6" x="15" y="65.9453"/></g><text fill="#000000" font-family="sans-serif" font-size="14" lengthAdjust="spacing" textLength="106.1484" x="27" y="72.292">apellido: String</text><g data-visibility-modifier="PRIVATE_FIELD"><rect fill="none" height="6" style="stroke:#C82930;stroke-width:1;" width="6" x="15" y="82.2422"/></g><text fill="#000000" font-family="sans-serif" font-size="14" lengthAdjust="spacing" textLength="140.1367" x="27" y="88.5889">nacionalidad: String</text><g data-visibility-modifier="PRIVATE_FIELD"><rect fill="none" height="6" style="stroke:#C82930;stroke-width:1;" width="6" x="15" y="98.5391"/></g><text fill="#000000" font-family="sans-serif" font-size="14" lengthAdjust="spacing" textLength="161.0273" x="27" y="104.8857">fechaNacimiento: Date</text><line style="stroke:#181818;stroke-width:0.5;" x1="8" x2="315.4111" y1="112.1875" y2="112.1875"/><g data-visibility-modifier="PUBLIC_METHOD"><ellipse cx="18" cy="125.8359" fill="#84BE84" rx="3" ry="3" style="stroke:#038048;stroke-width:1;"/></g><text fill="#000000" font-family="sans-serif" font-size="14" lengthAdjust="spacing" textLength="101.5" x="27" y="129.1826">escribir(): void</text><g data-visibility-modifier="PUBLIC_METHOD"><ellipse cx="18" cy="142.1328" fill="#84BE84" rx="3" ry="3" style="stroke:#038048;stroke-width:1;"/></g><text fill="#000000" font-family="sans-serif" font-size="14" lengthAdjust="spacing" textLength="283.4111" x="27" y="145.4795">getNombreCompleto(): String {derived}</text></g><path d="M351.05,54.76 L351.05,70.8928 L310.4111,140.6328 L351.05,78.8928 L351.05,95.0256 A0,0 0 0 0 351.05,95.0256 L560.3532,95.0256 A0,0 0 0 0 560.3532,95.0256 L560.3532,64.76 L550.3532,54.76 L351.05,54.76 A0,0 0 0 0 351.05,54.76" fill="#FEFFDD" style="stroke:#181818;stroke-width:0.5;"/><path d="M550.3532,54.76 L550.3532,64.76 L560.3532,64.76 L550.3532,54.76" fill="#FEFFDD" style="stroke:#181818;stroke-width:0.5;"/><text fill="#000000" font-family="sans-serif" font-size="13" lengthAdjust="spacing" textLength="184.1709" x="357.05" y="71.8269">Campo calculado a partir de</text><text fill="#000000" font-family="sans-serif" font-size="13" lengthAdjust="spacing" textLength="120.8657" x="357.05" y="86.9597">nombre + apellido</text><!--link Autor to Libro--><g class="link" data-entity-1="Autor" data-entity-2="Libro" data-source-line="25" data-uid="lnk6" id="link_Autor_Libro"><path codeLine="25" d="M161.71,153.01 C161.71,177.26 161.71,204.46 161.71,229.31" fill="none" id="Autor-Libro" style="stroke:#181818;stroke-width:1;"/><polygon fill="#000000" points="166.71,196.3464,169.6489,187.3013,163.7711,187.3013,166.71,196.3464" style="stroke:#000000;stroke-width:1;"/><text fill="#000000" font-family="sans-serif" font-size="13" lengthAdjust="spacing" textLength="47.125" x="175.71" y="195.8469">escribe</text><text fill="#000000" font-family="sans-serif" font-size="13" lengthAdjust="spacing" textLength="8.271" x="153.3421" y="172.7673">1</text><text fill="#000000" font-family="sans-serif" font-size="13" lengthAdjust="spacing" textLength="23.0356" x="137.7241" y="218.7334">1..*</text></g><!--SRC=[PP5DQyCm38Rl-HKYftsGmgu-34PtBAMm_G75LbE1OmL5wQNqlyznih7Ga-4Hxwl7jeyuZd3WLWLk5K03nZP5SV1bogahYCSsRK2QUb8vOSS9HmUShE11oNEE1fdQI1czGYJIfsS7L-5GG4VsNJRCzA-oy5E9ptmjk5ULBtuVauckVadwLccZWmF5o64hdJ2N9SmSmsPm9d_1OvxsJCbow1DjaQNHAxVy87miA_VI3v7idpZS0YbVATndrIH6eDnT3EIyA3ltaCwTU-m70O_HJn630CA0QgmG2F9ukM3U_7kjYbA0kRsgbeUetsfecdpiTY_r-dbkjITu_m40]--></g></svg>