<svg xmlns="http://www.w3.org/2000/svg" xmlns:xlink="http://www.w3.org/1999/xlink" contentStyleType="text/css" data-diagram-type="CLASS" height="458px" preserveAspectRatio="none" style="width:734px;height:458px;background:#FFFFFF;" version="1.1" viewBox="0 0 734 458" width="734px" zoomAndPan="magnify"><defs/><g><!--class CategoriaResponsable--><g class="entity" data-entity="CategoriaResponsable" data-source-line="10" data-uid="ent0002" id="entity_CategoriaResponsable"><rect fill="#F5F5F5" height="96.8906" rx="2.5" ry="2.5" style="stroke:#000000;stroke-width:0.5;" width="189.3564" x="7" y="180.89"/><ellipse cx="22" cy="196.89" fill="#EB937F" rx="11" ry="11" style="stroke:#181818;stroke-width:1;"/><path d="M26.1094,202.89 L18.3906,202.89 L18.3906,190.4994 L26.1094,190.4994 L26.1094,192.6556 L20.8438,192.6556 L20.8438,195.3275 L25.6094,195.3275 L25.6094,197.4838 L20.8438,197.4838 L20.8438,200.7338 L26.1094,200.7338 L26.1094,202.89 Z " fill="#000000"/><text fill="#000000" font-family="sans-serif" font-size="14" lengthAdjust="spacing" textLength="157.3564" x="36" y="201.7367">CategoriaResponsable</text><line style="stroke:#000000;stroke-width:0.5;" x1="8" x2="195.3564" y1="212.89" y2="212.89"/><text fill="#000000" font-family="sans-serif" font-size="14" lengthAdjust="spacing" textLength="89.4893" x="13" y="229.8851">SUPERVISOR</text><text fill="#000000" font-family="sans-serif" font-size="14" lengthAdjust="spacing" textLength="153.3438" x="13" y="246.182">JEFE_DEPARTAMENTO</text><text fill="#000000" font-family="sans-serif" font-size="14" lengthAdjust="spacing" textLength="66.1377" x="13" y="262.4789">GERENTE</text><line style="stroke:#000000;stroke-width:0.5;" x1="8" x2="195.3564" y1="269.7806" y2="269.7806"/></g><!--class Persona--><g class="entity" data-entity="Persona" data-source-line="17" data-uid="ent0003" id="entity_Persona"><rect fill="#F5F5F5" height="96.8906" rx="2.5" ry="2.5" style="stroke:#000000;stroke-width:0.5;" width="214.6104" x="440.37" y="7"/><ellipse cx="515.3637" cy="23" fill="#A9DCDF" rx="11" ry="11" style="stroke:#181818;stroke-width:1;"/><path d="M515.473,18.3438 L514.3168,23.4219 L516.6449,23.4219 L515.473,18.3438 Z M513.9887,16.1094 L516.973,16.1094 L520.3324,28.5 L517.8793,28.5 L517.1137,25.4375 L513.8324,25.4375 L513.0824,28.5 L510.6449,28.5 L513.9887,16.1094 Z " fill="#000000"/><text fill="#000000" font-family="sans-serif" font-size="14" font-style="italic" lengthAdjust="spacing" textLength="56.123" x="535.8637" y="27.8467">Persona</text><line style="stroke:#000000;stroke-width:0.5;" x1="441.37" x2="653.9804" y1="39" y2="39"/><text fill="#000000" font-family="sans-serif" font-size="14" lengthAdjust="spacing" textLength="110.332" x="446.37" y="55.9951">-nombre: String</text><text fill="#000000" font-family="sans-serif" font-size="14" lengthAdjust="spacing" textLength="202.6104" x="446.37" y="72.292">-fechaNacimiento: LocalDate</text><line style="stroke:#000000;stroke-width:0.5;" x1="441.37" x2="653.9804" y1="79.5938" y2="79.5938"/><text fill="#000000" font-family="sans-serif" font-size="14" lengthAdjust="spacing" textLength="140.4717" x="446.37" y="96.5889">+calcularEdad(): Int</text></g><!--class Empleado--><g class="entity" data-entity="Empleado" data-source-line="24" data-uid="ent0004" id="entity_Empleado"><rect fill="#F5F5F5" height="80.5938" rx="2.5" ry="2.5" style="stroke:#000000;stroke-width:0.5;" width="229.2461" x="231.06" y="189.04"/><ellipse cx="306.4809" cy="205.04" fill="#ADD1B2" rx="11" ry="11" style="stroke:#181818;stroke-width:1;"/><path d="M309.4496,210.6806 Q308.8715,210.9775 308.2309,211.1181 Q307.5903,211.2744 306.8871,211.2744 Q304.3871,211.2744 303.059,209.6338 Q301.7465,207.9775 301.7465,204.8525 Q301.7465,201.7275 303.059,200.0713 Q304.3871,198.415 306.8871,198.415 Q307.5903,198.415 308.2309,198.5713 Q308.8871,198.7275 309.4496,199.0244 L309.4496,201.7431 Q308.8246,201.165 308.2309,200.8994 Q307.6371,200.6181 307.0121,200.6181 Q305.6684,200.6181 304.9809,201.6963 Q304.2934,202.7588 304.2934,204.8525 Q304.2934,206.9463 304.9809,208.0244 Q305.6684,209.0869 307.0121,209.0869 Q307.6371,209.0869 308.2309,208.8213 Q308.8246,208.54 309.4496,207.9619 L309.4496,210.6806 Z " fill="#000000"/><text fill="#000000" font-family="sans-serif" font-size="14" lengthAdjust="spacing" textLength="69.9043" x="326.9809" y="209.8867">Empleado</text><line style="stroke:#000000;stroke-width:0.5;" x1="232.06" x2="459.3061" y1="221.04" y2="221.04"/><text fill="#000000" font-family="sans-serif" font-size="14" lengthAdjust="spacing" textLength="148.2373" x="237.06" y="238.0351">-sueldoBruto: Double</text><line style="stroke:#000000;stroke-width:0.5;" x1="232.06" x2="459.3061" y1="245.3369" y2="245.3369"/><text fill="#000000" font-family="sans-serif" font-size="14" lengthAdjust="spacing" textLength="217.2461" x="237.06" y="262.332">+calcularSueldoNeto(): Double</text></g><!--class EmpleadoResponsable--><g class="entity" data-entity="EmpleadoResponsable" data-source-line="30" data-uid="ent0005" id="entity_EmpleadoResponsable"><rect fill="#F5F5F5" height="96.8906" rx="2.5" ry="2.5" style="stroke:#000000;stroke-width:0.5;" width="301.6387" x="94.86" y="7"/><ellipse cx="161.8659" cy="23" fill="#ADD1B2" rx="11" ry="11" style="stroke:#181818;stroke-width:1;"/><path d="M164.8346,28.6406 Q164.2565,28.9375 163.6159,29.0781 Q162.9752,29.2344 162.2721,29.2344 Q159.7721,29.2344 158.444,27.5938 Q157.1315,25.9375 157.1315,22.8125 Q157.1315,19.6875 158.444,18.0313 Q159.7721,16.375 162.2721,16.375 Q162.9752,16.375 163.6159,16.5313 Q164.2721,16.6875 164.8346,16.9844 L164.8346,19.7031 Q164.2096,19.125 163.6159,18.8594 Q163.0221,18.5781 162.3971,18.5781 Q161.0534,18.5781 160.3659,19.6563 Q159.6784,20.7188 159.6784,22.8125 Q159.6784,24.9063 160.3659,25.9844 Q161.0534,27.0469 162.3971,27.0469 Q163.0221,27.0469 163.6159,26.7813 Q164.2096,26.5 164.8346,25.9219 L164.8346,28.6406 Z " fill="#000000"/><text fill="#000000" font-family="sans-serif" font-size="14" lengthAdjust="spacing" textLength="159.127" x="182.3659" y="27.8467">EmpleadoResponsable</text><line style="stroke:#000000;stroke-width:0.5;" x1="95.86" x2="395.4987" y1="39" y2="39"/><text fill="#000000" font-family="sans-serif" font-size="14" lengthAdjust="spacing" textLength="237.6309" x="100.86" y="55.9951">-categoria: CategoriaResponsable</text><line style="stroke:#000000;stroke-width:0.5;" x1="95.86" x2="395.4987" y1="63.2969" y2="63.2969"/><text fill="#000000" font-family="sans-serif" font-size="14" lengthAdjust="spacing" textLength="289.6387" x="100.86" y="80.292">+asignarSubordinado(e: Empleado): void</text><text fill="#000000" font-family="sans-serif" font-size="14" lengthAdjust="spacing" textLength="280.499" x="100.86" y="96.5889">+listarSubordinados(): List&lt;Empleado&gt;</text></g><!--class Cliente--><g class="entity" data-entity="Cliente" data-source-line="37" data-uid="ent0006" id="entity_Cliente"><rect fill="#F5F5F5" height="64.2969" rx="2.5" ry="2.5" style="stroke:#000000;stroke-width:0.5;" width="125.5381" x="494.91" y="197.19"/><ellipse cx="529.8875" cy="213.19" fill="#ADD1B2" rx="11" ry="11" style="stroke:#181818;stroke-width:1;"/><path d="M532.8563,218.8306 Q532.2782,219.1275 531.6375,219.2681 Q530.9969,219.4244 530.2938,219.4244 Q527.7938,219.4244 526.4657,217.7838 Q525.1532,216.1275 525.1532,213.0025 Q525.1532,209.8775 526.4657,208.2213 Q527.7938,206.565 530.2938,206.565 Q530.9969,206.565 531.6375,206.7213 Q532.2938,206.8775 532.8563,207.1744 L532.8563,209.8931 Q532.2313,209.315 531.6375,209.0494 Q531.0438,208.7681 530.4188,208.7681 Q529.075,208.7681 528.3875,209.8463 Q527.7,210.9088 527.7,213.0025 Q527.7,215.0963 528.3875,216.1744 Q529.075,217.2369 530.4188,217.2369 Q531.0438,217.2369 531.6375,216.9713 Q532.2313,216.69 532.8563,216.1119 L532.8563,218.8306 Z " fill="#000000"/><text fill="#000000" font-family="sans-serif" font-size="14" lengthAdjust="spacing" textLength="49.1436" x="548.327" y="218.0367">Cliente</text><line style="stroke:#000000;stroke-width:0.5;" x1="495.91" x2="619.4481" y1="229.19" y2="229.19"/><text fill="#000000" font-family="sans-serif" font-size="14" lengthAdjust="spacing" textLength="113.5381" x="500.91" y="246.1851">-telefono: String</text><line style="stroke:#000000;stroke-width:0.5;" x1="495.91" x2="619.4481" y1="253.4869" y2="253.4869"/></g><!--class Empresa--><g class="entity" data-entity="Empresa" data-source-line="42" data-uid="ent0007" id="entity_Empresa"><rect fill="#F5F5F5" height="96.8906" rx="2.5" ry="2.5" style="stroke:#000000;stroke-width:0.5;" width="204.4453" x="455.46" y="354.78"/><ellipse cx="522.6265" cy="370.78" fill="#ADD1B2" rx="11" ry="11" style="stroke:#181818;stroke-width:1;"/><path d="M525.5953,376.4206 Q525.0171,376.7175 524.3765,376.8581 Q523.7359,377.0144 523.0328,377.0144 Q520.5328,377.0144 519.2046,375.3738 Q517.8921,373.7175 517.8921,370.5925 Q517.8921,367.4675 519.2046,365.8113 Q520.5328,364.155 523.0328,364.155 Q523.7359,364.155 524.3765,364.3113 Q525.0328,364.4675 525.5953,364.7644 L525.5953,367.4831 Q524.9703,366.905 524.3765,366.6394 Q523.7828,366.3581 523.1578,366.3581 Q521.814,366.3581 521.1265,367.4363 Q520.439,368.4988 520.439,370.5925 Q520.439,372.6863 521.1265,373.7644 Q521.814,374.8269 523.1578,374.8269 Q523.7828,374.8269 524.3765,374.5613 Q524.9703,374.28 525.5953,373.7019 L525.5953,376.4206 Z " fill="#000000"/><text fill="#000000" font-family="sans-serif" font-size="14" lengthAdjust="spacing" textLength="61.6123" x="543.1265" y="375.6267">Empresa</text><line style="stroke:#000000;stroke-width:0.5;" x1="456.46" x2="658.9053" y1="386.78" y2="386.78"/><text fill="#000000" font-family="sans-serif" font-size="14" lengthAdjust="spacing" textLength="192.4453" x="461.46" y="403.7751">-nombreCorporativo: String</text><text fill="#000000" font-family="sans-serif" font-size="14" lengthAdjust="spacing" textLength="72.5156" x="461.46" y="420.072">-cif: String</text><text fill="#000000" font-family="sans-serif" font-size="14" lengthAdjust="spacing" textLength="159.2705" x="461.46" y="436.3689">-direccionFiscal: String</text><line style="stroke:#000000;stroke-width:0.5;" x1="456.46" x2="658.9053" y1="443.6706" y2="443.6706"/></g><!--reverse link Persona to Empleado--><g class="link" data-entity-1="Persona" data-entity-2="Empleado" data-source-line="49" data-uid="lnk8" id="link_Persona_Empleado"><path codeLine="49" d="M477.7028,115.9867 C446.5328,142.5167 421.95,163.43 392.44,188.54" fill="none" id="Persona-backto-Empleado" style="stroke:#000000;stroke-width:1;"/><polygon fill="none" points="491.41,104.32,473.8139,111.4177,481.5917,120.5558,491.41,104.32" style="stroke:#000000;stroke-width:1;"/></g><!--reverse link Persona to Cliente--><g class="link" data-entity-1="Persona" data-entity-2="Cliente" data-source-line="50" data-uid="lnk9" id="link_Persona_Cliente"><path codeLine="50" d="M551.5074,122.2895 C553.2274,151.7995 554.33,170.83 555.84,196.71" fill="none" id="Persona-backto-Cliente" style="stroke:#000000;stroke-width:1;"/><polygon fill="none" points="550.46,104.32,545.5175,122.6386,557.4972,121.9404,550.46,104.32" style="stroke:#000000;stroke-width:1;"/></g><!--reverse link Empleado to EmpleadoResponsable--><g class="link" data-entity-1="Empleado" data-entity-2="EmpleadoResponsable" data-source-line="51" data-uid="lnk10" id="link_Empleado_EmpleadoResponsable"><path codeLine="51" d="M338.3979,171.1411 C335.2979,153.4811 333.03,150.65 323.68,133.89 C317.82,123.39 310.12,113.37 301.84,104.22" fill="none" id="Empleado-backto-EmpleadoResponsable" style="stroke:#000000;stroke-width:1;"/><polygon fill="none" points="341.51,188.87,344.3075,170.1037,332.4883,172.1784,341.51,188.87" style="stroke:#000000;stroke-width:1;"/></g><!--link EmpleadoResponsable to Empleado--><g class="link" data-entity-1="EmpleadoResponsable" data-entity-2="Empleado" data-source-line="54" data-uid="lnk11" id="link_EmpleadoResponsable_Empleado"><path codeLine="54" d="M232.54,104.05 C230.67,119.69 231.42,136.69 238.68,150.89 C246.19,165.59 253.2639,174.3904 266.2739,184.8504" fill="none" id="EmpleadoResponsable-to-Empleado" style="stroke:#000000;stroke-width:1;"/><polygon fill="#000000" points="270.95,188.61,266.4422,179.8533,267.0533,185.477,261.4295,186.0881,270.95,188.61" style="stroke:#000000;stroke-width:1;"/><polygon fill="#000000" points="245.6063,147.0704,244.8336,137.5913,239.4095,139.8559,245.6063,147.0704" style="stroke:#000000;stroke-width:1;"/><text fill="#000000" font-family="sans-serif" font-size="13" lengthAdjust="spacing" textLength="62.6514" x="252.68" y="146.9569">supervisa</text><text fill="#000000" font-family="sans-serif" font-size="13" lengthAdjust="spacing" textLength="79.1616" x="147.1344" y="123.8849">responsable</text><text fill="#000000" font-family="sans-serif" font-size="13" lengthAdjust="spacing" textLength="24.8066" x="174.3119" y="139.0177">0..1</text><text fill="#000000" font-family="sans-serif" font-size="13" lengthAdjust="spacing" textLength="80.8374" x="266.1245" y="162.859">subordinado</text><text fill="#000000" font-family="sans-serif" font-size="13" lengthAdjust="spacing" textLength="23.0356" x="295.0254" y="177.9918">0..*</text></g><!--link Cliente to Empresa--><g class="link" data-entity-1="Cliente" data-entity-2="Empresa" data-source-line="57" data-uid="lnk12" id="link_Cliente_Empresa"><path codeLine="57" d="M557.68,261.86 C557.68,287.74 557.68,324.8 557.68,354.34" fill="none" id="Cliente-Empresa" style="stroke:#000000;stroke-width:1;"/><polygon fill="#000000" points="562.68,321.3464,565.6189,312.3013,559.7411,312.3013,562.68,321.3464" style="stroke:#000000;stroke-width:1;"/><text fill="#000000" font-family="sans-serif" font-size="13" lengthAdjust="spacing" textLength="155.2573" x="571.68" y="320.8469">representa/trabaja para</text><text fill="#000000" font-family="sans-serif" font-size="13" lengthAdjust="spacing" textLength="56.6021" x="497.2656" y="281.5218">contacto</text><text fill="#000000" font-family="sans-serif" font-size="13" lengthAdjust="spacing" textLength="23.0356" x="514.0488" y="296.6546">1..*</text><text fill="#000000" font-family="sans-serif" font-size="13" lengthAdjust="spacing" textLength="147.9131" x="401.7775" y="328.6371">empresaRepresentada</text><text fill="#000000" font-family="sans-serif" font-size="13" lengthAdjust="spacing" textLength="23.0356" x="464.2162" y="343.7699">1..*</text></g><!--link EmpleadoResponsable to CategoriaResponsable--><g class="link" data-entity-1="EmpleadoResponsable" data-entity-2="CategoriaResponsable" data-source-line="60" data-uid="lnk13" id="link_EmpleadoResponsable_CategoriaResponsable"><path codeLine="60" d="M205.57,104.32 C185.68,128.07 165.5735,152.061 145.6735,175.811" fill="none" id="EmpleadoResponsable-to-CategoriaResponsable" style="stroke:#000000;stroke-width:1;"/><polygon fill="#000000" points="141.82,180.41,150.6662,176.0805,145.0312,176.5775,144.5342,170.9425,141.82,180.41" style="stroke:#000000;stroke-width:1;"/></g><!--SRC=[RLJRRjD047ttLwpyqW9oQL-jAbBYk11Kqiefy8A4nlOaNRBUYNRN0N7vAZw17sDyZMFibtXcJiuvCxFh2n6HtifTQI2JV_zeaQD0wwGYp-wbFe21GcGAh9qxPsHQEbnbf3Vo1uhhCKJyz0G_2yZsEqEbpYDIPCIdP-bmKz0UcpAP74rJMYZ6rjcvCVHjcFpjUHSYrcM1hJKFEH0HEDoHaP2WFP2sa2fiTJSV7kFaushpaDJXk_Wk_hAC7-V9q_nzl7vwgBDlueJVuuO-OjSe8BMEDHo8HpIMD7XTfcshJRSoWT1Kf0P3iU69w5sRt6Bs36ksMaZKZa9nJnce9Tkj0Qy4HrcfmCGvv9SlGh7IRkWYBWuA8IUlqUp2NjIMg79QcBBYNbB9VO-8DpLYZOug-XOoeJ2Ot4Zi_va6pDuEF9oSVUi1hDpfoaBAsvMQkIvvG1qlspcIp5kiajQTGMtbzvwpjzqVPaFVaQecsdbjezwVGuLRqjIluxnZWnPENLRHQ8qHcGCPSF98eurcSZlAvD9WbadITzBorCyb4-HpopMqrILwYmPr9i7h3i_jho0uBVaispNOx_mCEnmsoymjCMrpMGrk5NwNHmWdLsZB0vgZv9QxglMcSBuv1P_rzTNLZI-2O2PyUzfHdN_fdyvbEA2VZOo5_PQ2VWTTnkVFX-ExnOmtDIEtwcC3Ih3wOHZaq9MxhONSRLTzpRSpXQyWgezFenvHSI0hM_cfBXtheoXvwFqvdfn6rVdKIVy7]--></g></svg>