<svg xmlns="http://www.w3.org/2000/svg" xmlns:xlink="http://www.w3.org/1999/xlink" contentStyleType="text/css" data-diagram-type="CLASS" height="524px" preserveAspectRatio="none" style="width:401px;height:524px;background:#FFFFFF;" version="1.1" viewBox="0 0 401 524" width="401px" zoomAndPan="magnify"><defs/><g><!--class JuegoNIM--><g class="entity" data-entity="JuegoNIM" data-source-line="10" data-uid="ent0002" id="entity_JuegoNIM"><rect fill="#F5F5F5" height="194.6719" rx="2.5" ry="2.5" style="stroke:#000000;stroke-width:0.5;" width="276.2227" x="62.49" y="7"/><ellipse cx="163.4773" cy="23" fill="#ADD1B2" rx="11" ry="11" style="stroke:#181818;stroke-width:1;"/><path d="M166.4461,28.6406 Q165.8679,28.9375 165.2273,29.0781 Q164.5867,29.2344 163.8836,29.2344 Q161.3836,29.2344 160.0554,27.5938 Q158.7429,25.9375 158.7429,22.8125 Q158.7429,19.6875 160.0554,18.0313 Q161.3836,16.375 163.8836,16.375 Q164.5867,16.375 165.2273,16.5313 Q165.8836,16.6875 166.4461,16.9844 L166.4461,19.7031 Q165.8211,19.125 165.2273,18.8594 Q164.6336,18.5781 164.0086,18.5781 Q162.6648,18.5781 161.9773,19.6563 Q161.2898,20.7188 161.2898,22.8125 Q161.2898,24.9063 161.9773,25.9844 Q162.6648,27.0469 164.0086,27.0469 Q164.6336,27.0469 165.2273,26.7813 Q165.8211,26.5 166.4461,25.9219 L166.4461,28.6406 Z " fill="#000000"/><text fill="#000000" font-family="sans-serif" font-size="14" lengthAdjust="spacing" textLength="65.748" x="183.9773" y="27.8467">JuegoNIM</text><line style="stroke:#000000;stroke-width:0.5;" x1="63.49" x2="337.7127" y1="39" y2="39"/><text fill="#000000" font-family="sans-serif" font-size="14" lengthAdjust="spacing" textLength="151.5664" x="68.49" y="55.9951">-palillosRestantes: Int</text><text fill="#000000" font-family="sans-serif" font-size="14" lengthAdjust="spacing" textLength="114.3721" x="68.49" y="72.292">-turnoActual: Int</text><text fill="#000000" font-family="sans-serif" font-size="14" lengthAdjust="spacing" textLength="185.0898" x="68.49" y="88.5889">-juegoTerminado: Boolean</text><line style="stroke:#000000;stroke-width:0.5;" x1="63.49" x2="337.7127" y1="95.8906" y2="95.8906"/><text fill="#000000" font-family="sans-serif" font-size="14" lengthAdjust="spacing" textLength="250.5713" x="68.49" y="112.8857">+iniciarJuego(numPalillos: Int): void</text><text fill="#000000" font-family="sans-serif" font-size="14" lengthAdjust="spacing" textLength="253.6543" x="68.49" y="129.1826">+jugarTurno(cantidad: Int): Boolean</text><text fill="#000000" font-family="sans-serif" font-size="14" lengthAdjust="spacing" textLength="205.7891" x="68.49" y="145.4795">+verificarFinJuego(): Boolean</text><text fill="#000000" font-family="sans-serif" font-size="14" lengthAdjust="spacing" textLength="238.0752" x="68.49" y="161.7764">+obtenerJugadorActual(): Jugador</text><text fill="#000000" font-family="sans-serif" font-size="14" lengthAdjust="spacing" textLength="153.5488" x="68.49" y="178.0732">+obtenerPalillos(): Int</text><text fill="#000000" font-family="sans-serif" font-size="14" lengthAdjust="spacing" textLength="264.2227" x="68.49" y="194.3701">+obtenerGanadores(): List&lt;Jugador&gt;</text></g><!--class Jugador--><g class="entity" data-entity="Jugador" data-source-line="23" data-uid="ent0003" id="entity_Jugador"><rect fill="#F5F5F5" height="113.1875" rx="2.5" ry="2.5" style="stroke:#000000;stroke-width:0.5;" width="349.2236" x="25.99" y="278.68"/><ellipse cx="169.5139" cy="294.68" fill="#ADD1B2" rx="11" ry="11" style="stroke:#181818;stroke-width:1;"/><path d="M172.4827,300.3206 Q171.9046,300.6175 171.2639,300.7581 Q170.6233,300.9144 169.9202,300.9144 Q167.4202,300.9144 166.0921,299.2738 Q164.7796,297.6175 164.7796,294.4925 Q164.7796,291.3675 166.0921,289.7113 Q167.4202,288.055 169.9202,288.055 Q170.6233,288.055 171.2639,288.2113 Q171.9202,288.3675 172.4827,288.6644 L172.4827,291.3831 Q171.8577,290.805 171.2639,290.5394 Q170.6702,290.2581 170.0452,290.2581 Q168.7014,290.2581 168.0139,291.3363 Q167.3264,292.3988 167.3264,294.4925 Q167.3264,296.5863 168.0139,297.6644 Q168.7014,298.7269 170.0452,298.7269 Q170.6702,298.7269 171.2639,298.4613 Q171.8577,298.18 172.4827,297.6019 L172.4827,300.3206 Z " fill="#000000"/><text fill="#000000" font-family="sans-serif" font-size="14" lengthAdjust="spacing" textLength="53.6758" x="190.0139" y="299.5267">Jugador</text><line style="stroke:#000000;stroke-width:0.5;" x1="26.99" x2="374.2136" y1="310.68" y2="310.68"/><text fill="#000000" font-family="sans-serif" font-size="14" lengthAdjust="spacing" textLength="110.332" x="31.99" y="327.6751">-nombre: String</text><text fill="#000000" font-family="sans-serif" font-size="14" lengthAdjust="spacing" textLength="145.8721" x="31.99" y="343.972">-esHumano: Boolean</text><line style="stroke:#000000;stroke-width:0.5;" x1="26.99" x2="374.2136" y1="351.2738" y2="351.2738"/><text fill="#000000" font-family="sans-serif" font-size="14" lengthAdjust="spacing" textLength="337.2236" x="31.99" y="368.2689">+decidirMovimiento(palillosDisponibles: Int): Int</text><text fill="#000000" font-family="sans-serif" font-size="14" lengthAdjust="spacing" textLength="172.6553" x="31.99" y="384.5657">+notificarDerrota(): void</text></g><!--class JugadorInteligente--><g class="entity" data-entity="JugadorInteligente" data-source-line="31" data-uid="ent0004" id="entity_JugadorInteligente"><rect fill="#F5F5F5" height="64.2969" rx="2.5" ry="2.5" style="stroke:#000000;stroke-width:0.5;" width="387.2041" x="7" y="452.86"/><ellipse cx="131.8345" cy="468.86" fill="#ADD1B2" rx="11" ry="11" style="stroke:#181818;stroke-width:1;"/><path d="M134.8032,474.5006 Q134.2251,474.7975 133.5845,474.9381 Q132.9438,475.0944 132.2407,475.0944 Q129.7407,475.0944 128.4126,473.4538 Q127.1001,471.7975 127.1001,468.6725 Q127.1001,465.5475 128.4126,463.8913 Q129.7407,462.235 132.2407,462.235 Q132.9438,462.235 133.5845,462.3913 Q134.2407,462.5475 134.8032,462.8444 L134.8032,465.5631 Q134.1782,464.985 133.5845,464.7194 Q132.9907,464.4381 132.3657,464.4381 Q131.022,464.4381 130.3345,465.5163 Q129.647,466.5788 129.647,468.6725 Q129.647,470.7663 130.3345,471.8444 Q131.022,472.9069 132.3657,472.9069 Q132.9907,472.9069 133.5845,472.6413 Q134.1782,472.36 134.8032,471.7819 L134.8032,474.5006 Z " fill="#000000"/><text fill="#000000" font-family="sans-serif" font-size="14" lengthAdjust="spacing" textLength="129.0352" x="152.3345" y="473.7067">JugadorInteligente</text><line style="stroke:#000000;stroke-width:0.5;" x1="8" x2="393.2041" y1="484.86" y2="484.86"/><line style="stroke:#000000;stroke-width:0.5;" x1="8" x2="393.2041" y1="492.86" y2="492.86"/><text fill="#000000" font-family="sans-serif" font-size="14" lengthAdjust="spacing" textLength="375.2041" x="13" y="509.8551">+calcularMovimientoOptimo(palillosActuales: Int): Int</text></g><!--reverse link JuegoNIM to Jugador--><g class="link" data-entity-1="JuegoNIM" data-entity-2="Jugador" data-source-line="36" data-uid="lnk5" id="link_JuegoNIM_Jugador"><path codeLine="36" d="M200.6,214.09 C200.6,240.09 200.6,255.33 200.6,278.28" fill="none" id="JuegoNIM-backto-Jugador" style="stroke:#000000;stroke-width:1;"/><polygon fill="none" points="200.6,202.09,196.6,208.09,200.6,214.09,204.6,208.09,200.6,202.09" style="stroke:#000000;stroke-width:1;"/><polygon fill="#000000" points="205.6,245.2464,208.5389,236.2013,202.6611,236.2013,205.6,245.2464" style="stroke:#000000;stroke-width:1;"/><text fill="#000000" font-family="sans-serif" font-size="13" lengthAdjust="spacing" textLength="32.9443" x="214.6" y="244.7469">tiene</text><text fill="#000000" font-family="sans-serif" font-size="13" lengthAdjust="spacing" textLength="8.271" x="192.3161" y="221.8914">1</text><text fill="#000000" font-family="sans-serif" font-size="13" lengthAdjust="spacing" textLength="23.0356" x="176.2004" y="267.4948">2..*</text></g><!--reverse link Jugador to JugadorInteligente--><g class="link" data-entity-1="Jugador" data-entity-2="JugadorInteligente" data-source-line="37" data-uid="lnk6" id="link_Jugador_JugadorInteligente"><path codeLine="37" d="M200.6,410.12 C200.6,430.55 200.6,434.94 200.6,452.5" fill="none" id="Jugador-backto-JugadorInteligente" style="stroke:#000000;stroke-width:1;"/><polygon fill="none" points="200.6,392.12,194.6,410.12,206.6,410.12,200.6,392.12" style="stroke:#000000;stroke-width:1;"/></g><!--SRC=[PLBBRjim4BphAnQ-n6dWeCrH208u3jAwQDeY3j0pJMsKZQbTOKawGDf-LJ-XFrRg6RdMYTePpGn7Um8huKSgenfBV_ym50Ze0pd9_8wuDcegiCvulmn1QHi3hgtmXbuHtlzFWPyPfEVQs5sf4hbOYHE57qyKS5F93ZjOj43je6kNkErqgIelq-7lB3k1LP95g9NOKcrSIkVWEM8fMMVukJb_NT_rpWj8979E_7swXE60FeSrXnuCKLcMDaJZfkDMy06r8ZQ5v2cWE3JSecT0J9QCjavpZjNttg5LECrXBrJqrETO6dreJEOscLDXYe5rgBb7fKUoHc-9E-4ZYcm3CYRRCcNIBdJ3wWU7h25JGnZkDO8VJNCjnHRzGZvSzXfNquu7tQ7NzcsibQNQAkQmIJl0PJz4_obMXeyQAz1IGNedUwe8ESXy-2itv6jXsZeSwtkBonAwKcumxK8myw7SuvJf8tHK9cqy33m1-kndO8spqPb9dczreEejLLVkOQJMynxJ9f8m-cnSjDc76SXY0REBy_Dtix6e74AIHhZAXidbhyGwZlKF]--></g></svg>