<svg xmlns="http://www.w3.org/2000/svg" xmlns:xlink="http://www.w3.org/1999/xlink" contentStyleType="text/css" data-diagram-type="CLASS" height="556px" preserveAspectRatio="none" style="width:1034px;height:556px;background:#FFFFFF;" version="1.1" viewBox="0 0 1034 556" width="1034px" zoomAndPan="magnify"><defs/><g><!--class TipoLibro--><g class="entity" data-entity="TipoLibro" data-source-line="10" data-uid="ent0002" id="entity_TipoLibro"><rect fill="#F5F5F5" height="96.8906" rx="2.5" ry="2.5" style="stroke:#000000;stroke-width:0.5;" width="96.791" x="7" y="419.97"/><ellipse cx="22" cy="435.97" fill="#EB937F" rx="11" ry="11" style="stroke:#181818;stroke-width:1;"/><path d="M26.1094,441.97 L18.3906,441.97 L18.3906,429.5794 L26.1094,429.5794 L26.1094,431.7356 L20.8438,431.7356 L20.8438,434.4075 L25.6094,434.4075 L25.6094,436.5638 L20.8438,436.5638 L20.8438,439.8138 L26.1094,439.8138 L26.1094,441.97 Z " fill="#000000"/><text fill="#000000" font-family="sans-serif" font-size="14" lengthAdjust="spacing" textLength="64.791" x="36" y="440.8167">TipoLibro</text><line style="stroke:#000000;stroke-width:0.5;" x1="8" x2="102.791" y1="451.97" y2="451.97"/><text fill="#000000" font-family="sans-serif" font-size="14" lengthAdjust="spacing" textLength="57.292" x="13" y="468.9651">NOVELA</text><text fill="#000000" font-family="sans-serif" font-size="14" lengthAdjust="spacing" textLength="50.9004" x="13" y="485.262">POESIA</text><text fill="#000000" font-family="sans-serif" font-size="14" lengthAdjust="spacing" textLength="67.7988" x="13" y="501.5589">CUENTOS</text><line style="stroke:#000000;stroke-width:0.5;" x1="8" x2="102.791" y1="508.8606" y2="508.8606"/></g><!--class EstadoLibro--><g class="entity" data-entity="EstadoLibro" data-source-line="16" data-uid="ent0003" id="entity_EstadoLibro"><rect fill="#F5F5F5" height="96.8906" rx="2.5" ry="2.5" style="stroke:#000000;stroke-width:0.5;" width="114.5576" x="139.12" y="419.97"/><ellipse cx="154.12" cy="435.97" fill="#EB937F" rx="11" ry="11" style="stroke:#181818;stroke-width:1;"/><path d="M158.2294,441.97 L150.5106,441.97 L150.5106,429.5794 L158.2294,429.5794 L158.2294,431.7356 L152.9638,431.7356 L152.9638,434.4075 L157.7294,434.4075 L157.7294,436.5638 L152.9638,436.5638 L152.9638,439.8138 L158.2294,439.8138 L158.2294,441.97 Z " fill="#000000"/><text fill="#000000" font-family="sans-serif" font-size="14" lengthAdjust="spacing" textLength="82.5576" x="168.12" y="440.8167">EstadoLibro</text><line style="stroke:#000000;stroke-width:0.5;" x1="140.12" x2="252.6776" y1="451.97" y2="451.97"/><text fill="#000000" font-family="sans-serif" font-size="14" lengthAdjust="spacing" textLength="84.1094" x="145.12" y="468.9651">DISPONIBLE</text><text fill="#000000" font-family="sans-serif" font-size="14" lengthAdjust="spacing" textLength="75.8311" x="145.12" y="485.262">PRESTADO</text><text fill="#000000" font-family="sans-serif" font-size="14" lengthAdjust="spacing" textLength="86.6934" x="145.12" y="501.5589">RETRASADO</text><line style="stroke:#000000;stroke-width:0.5;" x1="140.12" x2="252.6776" y1="508.8606" y2="508.8606"/></g><!--class Libro--><g class="entity" data-entity="Libro" data-source-line="23" data-uid="ent0004" id="entity_Libro"><rect fill="#F5F5F5" height="145.7813" rx="2.5" ry="2.5" style="stroke:#000000;stroke-width:0.5;" width="360.7285" x="200.03" y="164.59"/><ellipse cx="358.6955" cy="180.59" fill="#ADD1B2" rx="11" ry="11" style="stroke:#181818;stroke-width:1;"/><path d="M361.6643,186.2306 Q361.0862,186.5275 360.4455,186.6681 Q359.8049,186.8244 359.1018,186.8244 Q356.6018,186.8244 355.2737,185.1838 Q353.9612,183.5275 353.9612,180.4025 Q353.9612,177.2775 355.2737,175.6213 Q356.6018,173.965 359.1018,173.965 Q359.8049,173.965 360.4455,174.1213 Q361.1018,174.2775 361.6643,174.5744 L361.6643,177.2931 Q361.0393,176.715 360.4455,176.4494 Q359.8518,176.1681 359.2268,176.1681 Q357.883,176.1681 357.1955,177.2463 Q356.508,178.3088 356.508,180.4025 Q356.508,182.4963 357.1955,183.5744 Q357.883,184.6369 359.2268,184.6369 Q359.8518,184.6369 360.4455,184.3713 Q361.0393,184.09 361.6643,183.5119 L361.6643,186.2306 Z " fill="#000000"/><text fill="#000000" font-family="sans-serif" font-size="14" lengthAdjust="spacing" textLength="34.8975" x="379.1955" y="185.4367">Libro</text><line style="stroke:#000000;stroke-width:0.5;" x1="201.03" x2="559.7585" y1="196.59" y2="196.59"/><text fill="#000000" font-family="sans-serif" font-size="14" lengthAdjust="spacing" textLength="92.1963" x="206.03" y="213.5851">-titulo: String</text><text fill="#000000" font-family="sans-serif" font-size="14" lengthAdjust="spacing" textLength="84.9434" x="206.03" y="229.882">-isbn: String</text><text fill="#000000" font-family="sans-serif" font-size="14" lengthAdjust="spacing" textLength="105.8408" x="206.03" y="246.1789">-tipo: TipoLibro</text><text fill="#000000" font-family="sans-serif" font-size="14" lengthAdjust="spacing" textLength="144.2041" x="206.03" y="262.4757">-estado: EstadoLibro</text><line style="stroke:#000000;stroke-width:0.5;" x1="201.03" x2="559.7585" y1="269.7775" y2="269.7775"/><text fill="#000000" font-family="sans-serif" font-size="14" lengthAdjust="spacing" textLength="192.0557" x="206.03" y="286.7726">+estaDisponible(): Boolean</text><text fill="#000000" font-family="sans-serif" font-size="14" lengthAdjust="spacing" textLength="348.7285" x="206.03" y="303.0695">+cambiarEstado(nuevoEstado: EstadoLibro): void</text></g><!--class Autor--><g class="entity" data-entity="Autor" data-source-line="33" data-uid="ent0005" id="entity_Autor"><rect fill="#F5F5F5" height="96.8906" rx="2.5" ry="2.5" style="stroke:#000000;stroke-width:0.5;" width="214.6104" x="289.09" y="419.97"/><ellipse cx="373.0148" cy="435.97" fill="#ADD1B2" rx="11" ry="11" style="stroke:#181818;stroke-width:1;"/><path d="M375.9836,441.6106 Q375.4054,441.9075 374.7648,442.0481 Q374.1242,442.2044 373.4211,442.2044 Q370.9211,442.2044 369.5929,440.5638 Q368.2804,438.9075 368.2804,435.7825 Q368.2804,432.6575 369.5929,431.0013 Q370.9211,429.345 373.4211,429.345 Q374.1242,429.345 374.7648,429.5013 Q375.4211,429.6575 375.9836,429.9544 L375.9836,432.6731 Q375.3586,432.095 374.7648,431.8294 Q374.1711,431.5481 373.5461,431.5481 Q372.2023,431.5481 371.5148,432.6263 Q370.8273,433.6888 370.8273,435.7825 Q370.8273,437.8763 371.5148,438.9544 Q372.2023,440.0169 373.5461,440.0169 Q374.1711,440.0169 374.7648,439.7513 Q375.3586,439.47 375.9836,438.8919 L375.9836,441.6106 Z " fill="#000000"/><text fill="#000000" font-family="sans-serif" font-size="14" lengthAdjust="spacing" textLength="38.2607" x="393.5148" y="440.8167">Autor</text><line style="stroke:#000000;stroke-width:0.5;" x1="290.09" x2="502.7004" y1="451.97" y2="451.97"/><text fill="#000000" font-family="sans-serif" font-size="14" lengthAdjust="spacing" textLength="110.332" x="295.09" y="468.9651">-nombre: String</text><text fill="#000000" font-family="sans-serif" font-size="14" lengthAdjust="spacing" textLength="202.6104" x="295.09" y="485.262">-fechaNacimiento: LocalDate</text><line style="stroke:#000000;stroke-width:0.5;" x1="290.09" x2="502.7004" y1="492.5638" y2="492.5638"/><text fill="#000000" font-family="sans-serif" font-size="14" lengthAdjust="spacing" textLength="140.4717" x="295.09" y="509.5589">+calcularEdad(): Int</text></g><!--class Socio--><g class="entity" data-entity="Socio" data-source-line="40" data-uid="ent0006" id="entity_Socio"><rect fill="#F5F5F5" height="145.7813" rx="2.5" ry="2.5" style="stroke:#000000;stroke-width:0.5;" width="233.0059" x="595.89" y="164.59"/><ellipse cx="689.3407" cy="180.59" fill="#ADD1B2" rx="11" ry="11" style="stroke:#181818;stroke-width:1;"/><path d="M692.3094,186.2306 Q691.7313,186.5275 691.0907,186.6681 Q690.4501,186.8244 689.7469,186.8244 Q687.2469,186.8244 685.9188,185.1838 Q684.6063,183.5275 684.6063,180.4025 Q684.6063,177.2775 685.9188,175.6213 Q687.2469,173.965 689.7469,173.965 Q690.4501,173.965 691.0907,174.1213 Q691.7469,174.2775 692.3094,174.5744 L692.3094,177.2931 Q691.6844,176.715 691.0907,176.4494 Q690.4969,176.1681 689.8719,176.1681 Q688.5282,176.1681 687.8407,177.2463 Q687.1532,178.3088 687.1532,180.4025 Q687.1532,182.4963 687.8407,183.5744 Q688.5282,184.6369 689.8719,184.6369 Q690.4969,184.6369 691.0907,184.3713 Q691.6844,184.09 692.3094,183.5119 L692.3094,186.2306 Z " fill="#000000"/><text fill="#000000" font-family="sans-serif" font-size="14" lengthAdjust="spacing" textLength="37.6045" x="709.8407" y="185.4367">Socio</text><line style="stroke:#000000;stroke-width:0.5;" x1="596.89" x2="827.8959" y1="196.59" y2="196.59"/><text fill="#000000" font-family="sans-serif" font-size="14" lengthAdjust="spacing" textLength="110.332" x="601.89" y="213.5851">-nombre: String</text><text fill="#000000" font-family="sans-serif" font-size="14" lengthAdjust="spacing" textLength="77.6494" x="601.89" y="229.882">-dni: String</text><text fill="#000000" font-family="sans-serif" font-size="14" lengthAdjust="spacing" textLength="198.4541" x="601.89" y="246.1789">-fechaInscripcion: LocalDate</text><line style="stroke:#000000;stroke-width:0.5;" x1="596.89" x2="827.8959" y1="253.4806" y2="253.4806"/><text fill="#000000" font-family="sans-serif" font-size="14" lengthAdjust="spacing" textLength="198.2217" x="601.89" y="270.4757">+puedePrestarse(): Boolean</text><text fill="#000000" font-family="sans-serif" font-size="14" lengthAdjust="spacing" textLength="219.7412" x="601.89" y="286.7726">+contarPrestamosActivos(): Int</text><text fill="#000000" font-family="sans-serif" font-size="14" lengthAdjust="spacing" textLength="221.0059" x="601.89" y="303.0695">+tieneMultasActivas(): Boolean</text></g><!--class Prestamo--><g class="entity" data-entity="Prestamo" data-source-line="50" data-uid="ent0007" id="entity_Prestamo"><rect fill="#F5F5F5" height="162.0781" rx="2.5" ry="2.5" style="stroke:#000000;stroke-width:0.5;" width="253.9102" x="538.44" y="387.37"/><ellipse cx="627.9566" cy="403.37" fill="#ADD1B2" rx="11" ry="11" style="stroke:#181818;stroke-width:1;"/><path d="M630.9254,409.0106 Q630.3472,409.3075 629.7066,409.4481 Q629.066,409.6044 628.3629,409.6044 Q625.8629,409.6044 624.5347,407.9638 Q623.2222,406.3075 623.2222,403.1825 Q623.2222,400.0575 624.5347,398.4013 Q625.8629,396.745 628.3629,396.745 Q629.066,396.745 629.7066,396.9013 Q630.3629,397.0575 630.9254,397.3544 L630.9254,400.0731 Q630.3004,399.495 629.7066,399.2294 Q629.1129,398.9481 628.4879,398.9481 Q627.1441,398.9481 626.4566,400.0263 Q625.7691,401.0888 625.7691,403.1825 Q625.7691,405.2763 626.4566,406.3544 Q627.1441,407.4169 628.4879,407.4169 Q629.1129,407.4169 629.7066,407.1513 Q630.3004,406.87 630.9254,406.2919 L630.9254,409.0106 Z " fill="#000000"/><text fill="#000000" font-family="sans-serif" font-size="14" lengthAdjust="spacing" textLength="66.377" x="648.4566" y="408.2167">Prestamo</text><line style="stroke:#000000;stroke-width:0.5;" x1="539.44" x2="791.3502" y1="419.37" y2="419.37"/><text fill="#000000" font-family="sans-serif" font-size="14" lengthAdjust="spacing" textLength="189.2803" x="544.44" y="436.3651">-fechaPrestamo: LocalDate</text><text fill="#000000" font-family="sans-serif" font-size="14" lengthAdjust="spacing" textLength="166.2227" x="544.44" y="452.662">-fechaLimite: LocalDate</text><text fill="#000000" font-family="sans-serif" font-size="14" lengthAdjust="spacing" textLength="208.3662" x="544.44" y="468.9589">-fechaDevolucion: LocalDate?</text><line style="stroke:#000000;stroke-width:0.5;" x1="539.44" x2="791.3502" y1="476.2606" y2="476.2606"/><text fill="#000000" font-family="sans-serif" font-size="14" lengthAdjust="spacing" textLength="241.9102" x="544.44" y="493.2557">+calcularFechaLimite(): LocalDate</text><text fill="#000000" font-family="sans-serif" font-size="14" lengthAdjust="spacing" textLength="174.5898" x="544.44" y="509.5526">+estaVencido(): Boolean</text><text fill="#000000" font-family="sans-serif" font-size="14" lengthAdjust="spacing" textLength="189.8408" x="544.44" y="525.8495">+calcularDiasRetraso(): Int</text><text fill="#000000" font-family="sans-serif" font-size="14" lengthAdjust="spacing" textLength="122.3428" x="544.44" y="542.1464">+devolver(): void</text></g><!--class Multa--><g class="entity" data-entity="Multa" data-source-line="61" data-uid="ent0008" id="entity_Multa"><rect fill="#F5F5F5" height="113.1875" rx="2.5" ry="2.5" style="stroke:#000000;stroke-width:0.5;" width="199.4346" x="827.68" y="411.82"/><ellipse cx="903.6922" cy="427.82" fill="#ADD1B2" rx="11" ry="11" style="stroke:#181818;stroke-width:1;"/><path d="M906.661,433.4606 Q906.0828,433.7575 905.4422,433.8981 Q904.8016,434.0544 904.0985,434.0544 Q901.5985,434.0544 900.2703,432.4138 Q898.9578,430.7575 898.9578,427.6325 Q898.9578,424.5075 900.2703,422.8513 Q901.5985,421.195 904.0985,421.195 Q904.8016,421.195 905.4422,421.3513 Q906.0985,421.5075 906.661,421.8044 L906.661,424.5231 Q906.036,423.945 905.4422,423.6794 Q904.8485,423.3981 904.2235,423.3981 Q902.8797,423.3981 902.1922,424.4763 Q901.5047,425.5388 901.5047,427.6325 Q901.5047,429.7263 902.1922,430.8044 Q902.8797,431.8669 904.2235,431.8669 Q904.8485,431.8669 905.4422,431.6013 Q906.036,431.32 906.661,430.7419 L906.661,433.4606 Z " fill="#000000"/><text fill="#000000" font-family="sans-serif" font-size="14" lengthAdjust="spacing" textLength="38.9102" x="924.1922" y="432.6667">Multa</text><line style="stroke:#000000;stroke-width:0.5;" x1="828.68" x2="1026.1146" y1="443.82" y2="443.82"/><text fill="#000000" font-family="sans-serif" font-size="14" lengthAdjust="spacing" textLength="159.9473" x="833.68" y="460.8151">-fechaInicio: LocalDate</text><text fill="#000000" font-family="sans-serif" font-size="14" lengthAdjust="spacing" textLength="100.2695" x="833.68" y="477.112">-diasMulta: Int</text><line style="stroke:#000000;stroke-width:0.5;" x1="828.68" x2="1026.1146" y1="484.4138" y2="484.4138"/><text fill="#000000" font-family="sans-serif" font-size="14" lengthAdjust="spacing" textLength="162.0049" x="833.68" y="501.4089">+estaActiva(): Boolean</text><text fill="#000000" font-family="sans-serif" font-size="14" lengthAdjust="spacing" textLength="187.4346" x="833.68" y="517.7057">+getFechaFin(): LocalDate</text></g><!--class Biblioteca--><g class="entity" data-entity="Biblioteca" data-source-line="69" data-uid="ent0009" id="entity_Biblioteca"><rect fill="#F5F5F5" height="80.5938" rx="2.5" ry="2.5" style="stroke:#000000;stroke-width:0.5;" width="369.6357" x="527.58" y="7"/><ellipse cx="673.5956" cy="23" fill="#ADD1B2" rx="11" ry="11" style="stroke:#181818;stroke-width:1;"/><path d="M676.5644,28.6406 Q675.9863,28.9375 675.3456,29.0781 Q674.705,29.2344 674.0019,29.2344 Q671.5019,29.2344 670.1738,27.5938 Q668.8613,25.9375 668.8613,22.8125 Q668.8613,19.6875 670.1738,18.0313 Q671.5019,16.375 674.0019,16.375 Q674.705,16.375 675.3456,16.5313 Q676.0019,16.6875 676.5644,16.9844 L676.5644,19.7031 Q675.9394,19.125 675.3456,18.8594 Q674.7519,18.5781 674.1269,18.5781 Q672.7831,18.5781 672.0956,19.6563 Q671.4081,20.7188 671.4081,22.8125 Q671.4081,24.9063 672.0956,25.9844 Q672.7831,27.0469 674.1269,27.0469 Q674.7519,27.0469 675.3456,26.7813 Q675.9394,26.5 676.5644,25.9219 L676.5644,28.6406 Z " fill="#000000"/><text fill="#000000" font-family="sans-serif" font-size="14" lengthAdjust="spacing" textLength="69.1045" x="694.0956" y="27.8467">Biblioteca</text><line style="stroke:#000000;stroke-width:0.5;" x1="528.58" x2="896.2157" y1="39" y2="39"/><line style="stroke:#000000;stroke-width:0.5;" x1="528.58" x2="896.2157" y1="47" y2="47"/><text fill="#000000" font-family="sans-serif" font-size="14" lengthAdjust="spacing" textLength="357.6357" x="533.58" y="63.9951">+prestarLibro(socio: Socio, libro: Libro): Prestamo?</text><text fill="#000000" font-family="sans-serif" font-size="14" lengthAdjust="spacing" textLength="316.3193" x="533.58" y="80.292">+devolverLibro(prestamo: Prestamo): Multa?</text></g><!--link Libro to Autor--><g class="link" data-entity-1="Libro" data-entity-2="Autor" data-source-line="75" data-uid="lnk10" id="link_Libro_Autor"><path codeLine="75" d="M385.44,310.6 C387.92,346.12 390.84,387.97 393.05,419.5" fill="none" id="Libro-Autor" style="stroke:#000000;stroke-width:1;"/><polygon fill="#000000" points="393.7486,353.9242,396.0498,344.6963,390.1862,345.106,393.7486,353.9242" style="stroke:#000000;stroke-width:1;"/><text fill="#000000" font-family="sans-serif" font-size="13" lengthAdjust="spacing" textLength="69.6084" x="402.4" y="353.4369">escrito por</text><text fill="#000000" font-family="sans-serif" font-size="13" lengthAdjust="spacing" textLength="23.0356" x="361.8265" y="330.3573">1..*</text><text fill="#000000" font-family="sans-serif" font-size="13" lengthAdjust="spacing" textLength="23.0356" x="368.0576" y="408.995">1..*</text></g><!--link Libro to TipoLibro--><g class="link" data-entity-1="Libro" data-entity-2="TipoLibro" data-source-line="76" data-uid="lnk11" id="link_Libro_TipoLibro"><path codeLine="76" d="M233.51,310.75 C195.17,332.8 155.17,358.84 121.4,387.37 C110.25,396.79 103.3959,403.6547 93.9759,414.9347" fill="none" id="Libro-to-TipoLibro" style="stroke:#000000;stroke-width:1;"/><polygon fill="#000000" points="90.13,419.54,98.9691,415.196,93.3349,415.7022,92.8287,410.0681,90.13,419.54" style="stroke:#000000;stroke-width:1;"/></g><!--link Libro to EstadoLibro--><g class="link" data-entity-1="Libro" data-entity-2="EstadoLibro" data-source-line="77" data-uid="lnk12" id="link_Libro_EstadoLibro"><path codeLine="77" d="M322.43,310.6 C293.88,346.12 264.0087,383.2932 238.6687,414.8232" fill="none" id="Libro-to-EstadoLibro" style="stroke:#000000;stroke-width:1;"/><polygon fill="#000000" points="234.91,419.5,243.6659,414.9906,238.0422,415.6027,237.4301,409.979,234.91,419.5" style="stroke:#000000;stroke-width:1;"/></g><!--link Socio to Prestamo--><g class="link" data-entity-1="Socio" data-entity-2="Prestamo" data-source-line="79" data-uid="lnk13" id="link_Socio_Prestamo"><path codeLine="79" d="M697.59,310.6 C692.61,334.85 687.03,362.05 681.93,386.9" fill="none" id="Socio-Prestamo" style="stroke:#000000;stroke-width:1;"/><polygon fill="#000000" points="693.3947,353.8343,698.0922,345.5648,692.3344,344.383,693.3947,353.8343" style="stroke:#000000;stroke-width:1;"/><text fill="#000000" font-family="sans-serif" font-size="13" lengthAdjust="spacing" textLength="43.3228" x="703.4" y="353.4369">realiza</text><text fill="#000000" font-family="sans-serif" font-size="13" lengthAdjust="spacing" textLength="71.4048" x="622.1279" y="330.5269">prestatario</text><text fill="#000000" font-family="sans-serif" font-size="13" lengthAdjust="spacing" textLength="8.271" x="653.6948" y="345.6597">1</text><text fill="#000000" font-family="sans-serif" font-size="13" lengthAdjust="spacing" textLength="24.8066" x="658.3544" y="376.3234">0..3</text></g><!--link Libro to Prestamo--><g class="link" data-entity-1="Libro" data-entity-2="Prestamo" data-source-line="80" data-uid="lnk14" id="link_Libro_Prestamo"><path codeLine="80" d="M470.18,310.6 C500.37,334.85 534.22,362.05 565.16,386.9" fill="none" id="Libro-Prestamo" style="stroke:#000000;stroke-width:1;"/><polygon fill="#000000" points="532.298,352.0678,527.087,344.1119,523.4059,348.6943,532.298,352.0678" style="stroke:#000000;stroke-width:1;"/><text fill="#000000" font-family="sans-serif" font-size="13" lengthAdjust="spacing" textLength="61.2485" x="537.4" y="353.4369">objeto de</text><text fill="#000000" font-family="sans-serif" font-size="13" lengthAdjust="spacing" textLength="69.7925" x="462.4982" y="330.5269">libroPresta</text><text fill="#000000" font-family="sans-serif" font-size="13" lengthAdjust="spacing" textLength="8.271" x="493.2589" y="345.6597">1</text><text fill="#000000" font-family="sans-serif" font-size="13" lengthAdjust="spacing" textLength="24.8066" x="531.5495" y="376.3234">0..1</text></g><!--reverse link Socio to Multa--><g class="link" data-entity-1="Socio" data-entity-2="Multa" data-source-line="82" data-uid="lnk15" id="link_Socio_Multa"><path codeLine="82" d="M788.3444,319.3478 C818.9944,351.9878 846.45,381.22 875,411.62" fill="none" id="Socio-backto-Multa" style="stroke:#000000;stroke-width:1;"/><polygon fill="#000000" points="780.13,310.6,781.3213,317.712,788.3444,319.3478,787.1531,312.2357,780.13,310.6" style="stroke:#000000;stroke-width:1;"/><polygon fill="#000000" points="827.8229,352.5811,823.7732,343.9759,819.4885,347.9997,827.8229,352.5811" style="stroke:#000000;stroke-width:1;"/><text fill="#000000" font-family="sans-serif" font-size="13" lengthAdjust="spacing" textLength="32.9443" x="833.4" y="353.4369">tiene</text><text fill="#000000" font-family="sans-serif" font-size="13" lengthAdjust="spacing" textLength="8.271" x="778.2179" y="330.3573">1</text><text fill="#000000" font-family="sans-serif" font-size="13" lengthAdjust="spacing" textLength="23.0356" x="844.2147" y="400.8592">0..*</text></g><!--link Biblioteca to Socio--><g class="link" data-entity-1="Biblioteca" data-entity-2="Socio" data-source-line="84" data-uid="lnk16" id="link_Biblioteca_Socio"><path codeLine="84" d="M712.4,87.74 C712.4,109.95 712.4,132.36 712.4,158.39" fill="none" id="Biblioteca-to-Socio" style="stroke:#000000;stroke-width:1;stroke-dasharray:7,7;"/><polygon fill="#000000" points="712.4,164.39,716.4,155.39,712.4,159.39,708.4,155.39,712.4,164.39" style="stroke:#000000;stroke-width:1;"/><text fill="#000000" font-family="sans-serif" font-size="13" lengthAdjust="spacing" textLength="55.8911" x="713.4" y="130.6569">gestiona</text></g><!--link Biblioteca to Libro--><g class="link" data-entity-1="Biblioteca" data-entity-2="Libro" data-source-line="85" data-uid="lnk17" id="link_Biblioteca_Libro"><path codeLine="85" d="M642.39,87.97 C603.39,110.08 558.8393,135.3305 513.1793,161.2205" fill="none" id="Biblioteca-to-Libro" style="stroke:#000000;stroke-width:1;stroke-dasharray:7,7;"/><polygon fill="#000000" points="507.96,164.18,517.762,163.2204,512.3095,161.7138,513.816,156.2612,507.96,164.18" style="stroke:#000000;stroke-width:1;"/><text fill="#000000" font-family="sans-serif" font-size="13" lengthAdjust="spacing" textLength="55.8911" x="587.4" y="130.6569">gestiona</text></g><!--link Biblioteca to Prestamo--><g class="link" data-entity-1="Biblioteca" data-entity-2="Prestamo" data-source-line="86" data-uid="lnk18" id="link_Biblioteca_Prestamo"><path codeLine="86" d="M774.95,87.87 C801.16,107.7 829.42,134.03 846.4,164.59 C888.43,240.28 920.84,284.3 874.4,357.37 C857.54,383.88 838.38,373.11 810.4,387.37 C804.63,390.31 804.0734,390.5629 798.1634,393.6629" fill="none" id="Biblioteca-to-Prestamo" style="stroke:#000000;stroke-width:1;stroke-dasharray:7,7;"/><polygon fill="#000000" points="792.85,396.45,802.6782,395.8117,797.2778,394.1274,798.9621,388.7271,792.85,396.45" style="stroke:#000000;stroke-width:1;"/><text fill="#000000" font-family="sans-serif" font-size="13" lengthAdjust="spacing" textLength="55.8911" x="897.4" y="242.0469">gestiona</text></g><!--SRC=[VLJBRXen5Dtp5HQRaBIWHDtDWeZ7H4AY434qtNHZPcw86uyliZrKIjIlwYVqntfjpu0PI6SpzdsUSn- -OXDKps9RQPwBltyKAu21iK9YnxmAjUEQbooNt9YHjLfiAWkp75Kcte3TjatOUuVHD-RvwrPZfOe9IjJi-ukma9Nu2a6DkW0TL6D9jbuwqXf_nSBVdSuLIrLLWeE62am7wCRMOeTpiT5OPriidzBvo1yVbsas2yV9jtInNcOkYlTAZUN5YTzqbZqk5xFnF0s-gpHRZwPBVrcbwzKeSpUFOaBaW7ddJY0Q1-epAsmbCM4PLKXjQw4m6zKIMOAU70dKKl3GaXYYrtpocgamErHY8w5tdL3jK09NjJxdvKPm7Hnxge8zfkV1o6sFeeYfZ2gBkgRYpmSg2ikDXXRkPyXV-8AwK0fGbgBFCUTooYqSWCYyaeIau8M3ELCsJfSXDR1Evy__JrSeSGd0J9bSYvsRXNC4kmeAUDIkOjfSAXKgqWI34iqejsAFfi4QR2onWw-Lj3pekOdZH7oQCAoN-plj33V4AwpGTStqOFKUisYaRGgrUaurjl21SaeDbbMh0FUj7ZmSmpZuxKAvx4-WSa4JSs6WGeofu6O5LXEhqn8L3i4UTE_2KFdArTpz-PJuJ0b2Viwie5pUFCxZK8OUd8FSWlKS7uGw9HXXsL80r0sQCQsFG0jv0udc9OoANv2UwvrRN_VxpAIJ9QpPdQPXzwqI1DVTePsD7RbuElS1pmfayto5HwDxDnZST5c_tvp20YR4cSRR8jlHRLWRz_l3wBquokAteXDMgXkW42c1FzHTo70x67pf7YSnOHgu56_yaA3hsGQ3sElkn0itFu6GqPmF3-d8ugOs9XAXuKdO8MSLrNmm6DPhd_Z6K3LuMn_GVAoFm3Gc_m00]--></g></svg>