<svg xmlns="http://www.w3.org/2000/svg" xmlns:xlink="http://www.w3.org/1999/xlink" contentStyleType="text/css" data-diagram-type="CLASS" height="935px" preserveAspectRatio="none" style="width:802px;height:935px;background:#FFFFFF;" version="1.1" viewBox="0 0 802 935" width="802px" zoomAndPan="magnify"><defs/><g><!--class Superficie--><g class="entity" data-entity="Superficie" data-source-line="10" data-uid="ent0002" id="entity_Superficie"><rect fill="#F5F5F5" height="96.8906" rx="2.5" ry="2.5" style="stroke:#000000;stroke-width:0.5;" width="121.7783" x="7" y="237.93"/><ellipse cx="30.8849" cy="253.93" fill="#EB937F" rx="11" ry="11" style="stroke:#181818;stroke-width:1;"/><path d="M34.9942,259.93 L27.2755,259.93 L27.2755,247.5394 L34.9942,247.5394 L34.9942,249.6956 L29.7286,249.6956 L29.7286,252.3675 L34.4942,252.3675 L34.4942,254.5237 L29.7286,254.5237 L29.7286,257.7737 L34.9942,257.7737 L34.9942,259.93 Z " fill="#000000"/><text fill="#000000" font-family="sans-serif" font-size="14" lengthAdjust="spacing" textLength="70.0342" x="46.8593" y="258.7767">Superficie</text><line style="stroke:#000000;stroke-width:0.5;" x1="8" x2="127.7783" y1="269.93" y2="269.93"/><text fill="#000000" font-family="sans-serif" font-size="14" lengthAdjust="spacing" textLength="55.5762" x="13" y="286.9251">CESPED</text><text fill="#000000" font-family="sans-serif" font-size="14" lengthAdjust="spacing" textLength="109.7783" x="13" y="303.222">TIERRA_BATIDA</text><text fill="#000000" font-family="sans-serif" font-size="14" lengthAdjust="spacing" textLength="86.9189" x="13" y="319.5189">PISTA_DURA</text><line style="stroke:#000000;stroke-width:0.5;" x1="8" x2="127.7783" y1="326.8206" y2="326.8206"/></g><!--class Equipo--><g class="entity" data-entity="Equipo" data-source-line="17" data-uid="ent0003" id="entity_Equipo"><rect fill="#F5F5F5" height="96.8906" rx="2.5" ry="2.5" style="stroke:#000000;stroke-width:0.5;" width="298.46" x="163.66" y="237.93"/><ellipse cx="284.6663" cy="253.93" fill="#ADD1B2" rx="11" ry="11" style="stroke:#181818;stroke-width:1;"/><path d="M287.6351,259.5706 Q287.057,259.8675 286.4163,260.0081 Q285.7757,260.1644 285.0726,260.1644 Q282.5726,260.1644 281.2445,258.5237 Q279.932,256.8675 279.932,253.7425 Q279.932,250.6175 281.2445,248.9612 Q282.5726,247.305 285.0726,247.305 Q285.7757,247.305 286.4163,247.4612 Q287.0726,247.6175 287.6351,247.9144 L287.6351,250.6331 Q287.0101,250.055 286.4163,249.7894 Q285.8226,249.5081 285.1976,249.5081 Q283.8538,249.5081 283.1663,250.5862 Q282.4788,251.6487 282.4788,253.7425 Q282.4788,255.8362 283.1663,256.9144 Q283.8538,257.9769 285.1976,257.9769 Q285.8226,257.9769 286.4163,257.7112 Q287.0101,257.43 287.6351,256.8519 L287.6351,259.5706 Z " fill="#000000"/><text fill="#000000" font-family="sans-serif" font-size="14" lengthAdjust="spacing" textLength="47.9473" x="305.1663" y="258.7767">Equipo</text><line style="stroke:#000000;stroke-width:0.5;" x1="164.66" x2="461.12" y1="269.93" y2="269.93"/><text fill="#000000" font-family="sans-serif" font-size="14" lengthAdjust="spacing" textLength="138.5371" x="169.66" y="286.9251">-nombrePais: String</text><line style="stroke:#000000;stroke-width:0.5;" x1="164.66" x2="461.12" y1="294.2269" y2="294.2269"/><text fill="#000000" font-family="sans-serif" font-size="14" lengthAdjust="spacing" textLength="286.46" x="169.66" y="311.222">+agregarJugador(jugador: Jugador): void</text><text fill="#000000" font-family="sans-serif" font-size="14" lengthAdjust="spacing" textLength="226.0029" x="169.66" y="327.5189">+getJugadores(): List&lt;Jugador&gt;</text></g><!--class Jugador--><g class="entity" data-entity="Jugador" data-source-line="24" data-uid="ent0004" id="entity_Jugador"><rect fill="#F5F5F5" height="129.4844" rx="2.5" ry="2.5" style="stroke:#000000;stroke-width:0.5;" width="214.6104" x="293.58" y="799.05"/><ellipse cx="369.7973" cy="815.05" fill="#ADD1B2" rx="11" ry="11" style="stroke:#181818;stroke-width:1;"/><path d="M372.766,820.6906 Q372.1879,820.9875 371.5473,821.1281 Q370.9067,821.2844 370.2035,821.2844 Q367.7035,821.2844 366.3754,819.6438 Q365.0629,817.9875 365.0629,814.8625 Q365.0629,811.7375 366.3754,810.0813 Q367.7035,808.425 370.2035,808.425 Q370.9067,808.425 371.5473,808.5813 Q372.2035,808.7375 372.766,809.0344 L372.766,811.7531 Q372.141,811.175 371.5473,810.9094 Q370.9535,810.6281 370.3285,810.6281 Q368.9848,810.6281 368.2973,811.7063 Q367.6098,812.7688 367.6098,814.8625 Q367.6098,816.9563 368.2973,818.0344 Q368.9848,819.0969 370.3285,819.0969 Q370.9535,819.0969 371.5473,818.8313 Q372.141,818.55 372.766,817.9719 L372.766,820.6906 Z " fill="#000000"/><text fill="#000000" font-family="sans-serif" font-size="14" lengthAdjust="spacing" textLength="53.6758" x="390.2973" y="819.8967">Jugador</text><line style="stroke:#000000;stroke-width:0.5;" x1="294.58" x2="507.1904" y1="831.05" y2="831.05"/><text fill="#000000" font-family="sans-serif" font-size="14" lengthAdjust="spacing" textLength="110.332" x="299.58" y="848.0451">-nombre: String</text><text fill="#000000" font-family="sans-serif" font-size="14" lengthAdjust="spacing" textLength="85.6748" x="299.58" y="864.342">-ranking: Int</text><text fill="#000000" font-family="sans-serif" font-size="14" lengthAdjust="spacing" textLength="202.6104" x="299.58" y="880.6389">-fechaNacimiento: LocalDate</text><text fill="#000000" font-family="sans-serif" font-size="14" lengthAdjust="spacing" textLength="145.1885" x="299.58" y="896.9357">-nacionalidad: String</text><line style="stroke:#000000;stroke-width:0.5;" x1="294.58" x2="507.1904" y1="904.2375" y2="904.2375"/><text fill="#000000" font-family="sans-serif" font-size="14" lengthAdjust="spacing" textLength="140.4717" x="299.58" y="921.2326">+calcularEdad(): Int</text></g><!--class Eliminatoria--><g class="entity" data-entity="Eliminatoria" data-source-line="33" data-uid="ent0005" id="entity_Eliminatoria"><rect fill="#F5F5F5" height="129.4844" rx="2.5" ry="2.5" style="stroke:#000000;stroke-width:0.5;" width="308.6592" x="131.56" y="7"/><ellipse cx="239.6977" cy="23" fill="#ADD1B2" rx="11" ry="11" style="stroke:#181818;stroke-width:1;"/><path d="M242.6664,28.6406 Q242.0883,28.9375 241.4477,29.0781 Q240.8071,29.2344 240.1039,29.2344 Q237.6039,29.2344 236.2758,27.5938 Q234.9633,25.9375 234.9633,22.8125 Q234.9633,19.6875 236.2758,18.0313 Q237.6039,16.375 240.1039,16.375 Q240.8071,16.375 241.4477,16.5313 Q242.1039,16.6875 242.6664,16.9844 L242.6664,19.7031 Q242.0414,19.125 241.4477,18.8594 Q240.8539,18.5781 240.2289,18.5781 Q238.8852,18.5781 238.1977,19.6563 Q237.5102,20.7188 237.5102,22.8125 Q237.5102,24.9063 238.1977,25.9844 Q238.8852,27.0469 240.2289,27.0469 Q240.8539,27.0469 241.4477,26.7813 Q242.0414,26.5 242.6664,25.9219 L242.6664,28.6406 Z " fill="#000000"/><text fill="#000000" font-family="sans-serif" font-size="14" lengthAdjust="spacing" textLength="83.8838" x="260.1977" y="27.8467">Eliminatoria</text><line style="stroke:#000000;stroke-width:0.5;" x1="132.56" x2="439.2192" y1="39" y2="39"/><text fill="#000000" font-family="sans-serif" font-size="14" lengthAdjust="spacing" textLength="152.6943" x="137.56" y="55.9951">-superficie: Superficie</text><text fill="#000000" font-family="sans-serif" font-size="14" lengthAdjust="spacing" textLength="159.9473" x="137.56" y="72.292">-fechaInicio: LocalDate</text><line style="stroke:#000000;stroke-width:0.5;" x1="132.56" x2="439.2192" y1="79.5938" y2="79.5938"/><text fill="#000000" font-family="sans-serif" font-size="14" lengthAdjust="spacing" textLength="202.248" x="137.56" y="96.5889">+calcularGanador(): Equipo?</text><text fill="#000000" font-family="sans-serif" font-size="14" lengthAdjust="spacing" textLength="166.5098" x="137.56" y="112.8857">+getResultado(): String</text><text fill="#000000" font-family="sans-serif" font-size="14" lengthAdjust="spacing" textLength="296.6592" x="137.56" y="129.1826">+getPartidosGanados(equipo: Equipo): Int</text></g><!--class Partido--><g class="entity" data-entity="Partido" data-source-line="42" data-uid="ent0006" id="entity_Partido"><rect fill="#F5F5F5" height="145.7813" rx="2.5" ry="2.5" style="stroke:#000000;stroke-width:0.5;" width="184.6006" x="497.59" y="213.48"/><ellipse cx="560.8361" cy="229.48" fill="#A9DCDF" rx="11" ry="11" style="stroke:#181818;stroke-width:1;"/><path d="M560.9455,224.8238 L559.7892,229.9019 L562.1173,229.9019 L560.9455,224.8238 Z M559.4611,222.5894 L562.4455,222.5894 L565.8048,234.98 L563.3517,234.98 L562.5861,231.9175 L559.3048,231.9175 L558.5548,234.98 L556.1173,234.98 L559.4611,222.5894 Z " fill="#000000"/><text fill="#000000" font-family="sans-serif" font-size="14" font-style="italic" lengthAdjust="spacing" textLength="49.6084" x="581.3361" y="234.3267">Partido</text><line style="stroke:#000000;stroke-width:0.5;" x1="498.59" x2="681.1906" y1="245.48" y2="245.48"/><text fill="#000000" font-family="sans-serif" font-size="14" lengthAdjust="spacing" textLength="136.6367" x="503.59" y="262.4751">-numeroPartido: Int</text><text fill="#000000" font-family="sans-serif" font-size="14" lengthAdjust="spacing" textLength="54.0654" x="503.59" y="278.772">-dia: Int</text><text fill="#000000" font-family="sans-serif" font-size="14" lengthAdjust="spacing" textLength="145.8789" x="503.59" y="295.0689">-setsEquipoLocal: Int</text><text fill="#000000" font-family="sans-serif" font-size="14" lengthAdjust="spacing" textLength="171.042" x="503.59" y="311.3657">-setsEquipoVisitante: Int</text><line style="stroke:#000000;stroke-width:0.5;" x1="498.59" x2="681.1906" y1="318.6675" y2="318.6675"/><text fill="#000000" font-family="sans-serif" font-size="14" font-style="italic" lengthAdjust="spacing" textLength="156.6797" x="503.59" y="335.6626">+getGanador(): String</text><text fill="#000000" font-family="sans-serif" font-size="14" font-style="italic" lengthAdjust="spacing" textLength="172.6006" x="503.59" y="351.9595">+esIndividual(): Boolean</text></g><!--class PartidoIndividual--><g class="entity" data-entity="PartidoIndividual" data-source-line="52" data-uid="ent0007" id="entity_PartidoIndividual"><rect fill="#F5F5F5" height="80.5938" rx="2.5" ry="2.5" style="stroke:#000000;stroke-width:0.5;" width="184.6006" x="369.59" y="530.86"/><ellipse cx="400.2547" cy="546.86" fill="#ADD1B2" rx="11" ry="11" style="stroke:#181818;stroke-width:1;"/><path d="M403.2235,552.5006 Q402.6454,552.7975 402.0047,552.9381 Q401.3641,553.0944 400.661,553.0944 Q398.161,553.0944 396.8329,551.4537 Q395.5204,549.7975 395.5204,546.6725 Q395.5204,543.5475 396.8329,541.8912 Q398.161,540.235 400.661,540.235 Q401.3641,540.235 402.0047,540.3912 Q402.661,540.5475 403.2235,540.8444 L403.2235,543.5631 Q402.5985,542.985 402.0047,542.7194 Q401.411,542.4381 400.786,542.4381 Q399.4422,542.4381 398.7547,543.5162 Q398.0672,544.5787 398.0672,546.6725 Q398.0672,548.7662 398.7547,549.8444 Q399.4422,550.9069 400.786,550.9069 Q401.411,550.9069 402.0047,550.6412 Q402.5985,550.36 403.2235,549.7819 L403.2235,552.5006 Z " fill="#000000"/><text fill="#000000" font-family="sans-serif" font-size="14" lengthAdjust="spacing" textLength="117.79" x="417.7358" y="551.7067">PartidoIndividual</text><line style="stroke:#000000;stroke-width:0.5;" x1="370.59" x2="553.1906" y1="562.86" y2="562.86"/><line style="stroke:#000000;stroke-width:0.5;" x1="370.59" x2="553.1906" y1="570.86" y2="570.86"/><text fill="#000000" font-family="sans-serif" font-size="14" lengthAdjust="spacing" textLength="156.6797" x="375.59" y="587.8551">+getGanador(): String</text><text fill="#000000" font-family="sans-serif" font-size="14" lengthAdjust="spacing" textLength="172.6006" x="375.59" y="604.152">+esIndividual(): Boolean</text></g><!--class PartidoDobles--><g class="entity" data-entity="PartidoDobles" data-source-line="58" data-uid="ent0008" id="entity_PartidoDobles"><rect fill="#F5F5F5" height="80.5938" rx="2.5" ry="2.5" style="stroke:#000000;stroke-width:0.5;" width="184.6006" x="527.59" y="420.26"/><ellipse cx="567.3233" cy="436.26" fill="#ADD1B2" rx="11" ry="11" style="stroke:#181818;stroke-width:1;"/><path d="M570.2921,441.9006 Q569.7139,442.1975 569.0733,442.3381 Q568.4327,442.4944 567.7296,442.4944 Q565.2296,442.4944 563.9014,440.8538 Q562.5889,439.1975 562.5889,436.0725 Q562.5889,432.9475 563.9014,431.2913 Q565.2296,429.635 567.7296,429.635 Q568.4327,429.635 569.0733,429.7913 Q569.7296,429.9475 570.2921,430.2444 L570.2921,432.9631 Q569.6671,432.385 569.0733,432.1194 Q568.4796,431.8381 567.8546,431.8381 Q566.5108,431.8381 565.8233,432.9163 Q565.1358,433.9788 565.1358,436.0725 Q565.1358,438.1663 565.8233,439.2444 Q566.5108,440.3069 567.8546,440.3069 Q568.4796,440.3069 569.0733,440.0413 Q569.6671,439.76 570.2921,439.1819 L570.2921,441.9006 Z " fill="#000000"/><text fill="#000000" font-family="sans-serif" font-size="14" lengthAdjust="spacing" textLength="97.6377" x="586.8196" y="441.1067">PartidoDobles</text><line style="stroke:#000000;stroke-width:0.5;" x1="528.59" x2="711.1906" y1="452.26" y2="452.26"/><line style="stroke:#000000;stroke-width:0.5;" x1="528.59" x2="711.1906" y1="460.26" y2="460.26"/><text fill="#000000" font-family="sans-serif" font-size="14" lengthAdjust="spacing" textLength="156.6797" x="533.59" y="477.2551">+getGanador(): String</text><text fill="#000000" font-family="sans-serif" font-size="14" lengthAdjust="spacing" textLength="172.6006" x="533.59" y="493.552">+esIndividual(): Boolean</text></g><!--class Pareja--><g class="entity" data-entity="Pareja" data-source-line="64" data-uid="ent0009" id="entity_Pareja"><rect fill="#F5F5F5" height="80.5938" rx="2.5" ry="2.5" style="stroke:#000000;stroke-width:0.5;" width="302.7734" x="492.5" y="641.45"/><ellipse cx="617.707" cy="657.45" fill="#ADD1B2" rx="11" ry="11" style="stroke:#181818;stroke-width:1;"/><path d="M620.6758,663.0906 Q620.0977,663.3875 619.457,663.5281 Q618.8164,663.6844 618.1133,663.6844 Q615.6133,663.6844 614.2852,662.0438 Q612.9727,660.3875 612.9727,657.2625 Q612.9727,654.1375 614.2852,652.4813 Q615.6133,650.825 618.1133,650.825 Q618.8164,650.825 619.457,650.9813 Q620.1133,651.1375 620.6758,651.4344 L620.6758,654.1531 Q620.0508,653.575 619.457,653.3094 Q618.8633,653.0281 618.2383,653.0281 Q616.8945,653.0281 616.207,654.1063 Q615.5195,655.1688 615.5195,657.2625 Q615.5195,659.3563 616.207,660.4344 Q616.8945,661.4969 618.2383,661.4969 Q618.8633,661.4969 619.457,661.2313 Q620.0508,660.95 620.6758,660.3719 L620.6758,663.0906 Z " fill="#000000"/><text fill="#000000" font-family="sans-serif" font-size="14" lengthAdjust="spacing" textLength="43.8594" x="638.207" y="662.2967">Pareja</text><line style="stroke:#000000;stroke-width:0.5;" x1="493.5" x2="794.2734" y1="673.45" y2="673.45"/><line style="stroke:#000000;stroke-width:0.5;" x1="493.5" x2="794.2734" y1="681.45" y2="681.45"/><text fill="#000000" font-family="sans-serif" font-size="14" lengthAdjust="spacing" textLength="265.4053" x="498.5" y="698.4451">+contiene(jugador: Jugador): Boolean</text><text fill="#000000" font-family="sans-serif" font-size="14" lengthAdjust="spacing" textLength="290.7734" x="498.5" y="714.742">+getJugadores(): Pair&lt;Jugador, Jugador&gt;</text></g><!--reverse link Equipo to Jugador--><g class="link" data-entity-1="Equipo" data-entity-2="Jugador" data-source-line="70" data-uid="lnk10" id="link_Equipo_Jugador"><path codeLine="70" d="M304.076,346.989 C295.766,410.619 287.02,514.59 304.89,611.45 C317.11,677.71 346.04,749.1 368.97,798.8" fill="none" id="Equipo-backto-Jugador" style="stroke:#000000;stroke-width:1;"/><polygon fill="none" points="305.63,335.09,300.8867,340.5215,304.076,346.989,308.8193,341.5575,305.63,335.09" style="stroke:#000000;stroke-width:1;"/><polygon fill="#000000" points="310.6009,576.1656,312.224,566.7946,306.4058,567.6302,310.6009,576.1656" style="stroke:#000000;stroke-width:1;"/><text fill="#000000" font-family="sans-serif" font-size="13" lengthAdjust="spacing" textLength="32.9443" x="318.89" y="575.7169">tiene</text><text fill="#000000" font-family="sans-serif" font-size="13" lengthAdjust="spacing" textLength="8.271" x="296.1351" y="354.7197">1</text><text fill="#000000" font-family="sans-serif" font-size="13" lengthAdjust="spacing" textLength="24.8066" x="340.2109" y="787.9453">1..5</text></g><!--reverse link Eliminatoria to Partido--><g class="link" data-entity-1="Eliminatoria" data-entity-2="Partido" data-source-line="71" data-uid="lnk11" id="link_Eliminatoria_Partido"><path codeLine="71" d="M387.3438,143.7072 C425.1938,170.1772 459.18,193.95 497.14,220.5" fill="none" id="Eliminatoria-backto-Partido" style="stroke:#000000;stroke-width:1;"/><polygon fill="#000000" points="377.51,136.83,380.1345,143.5465,387.3438,143.7072,384.7193,136.9906,377.51,136.83" style="stroke:#000000;stroke-width:1;"/><polygon fill="#000000" points="446.9873,177.9121,441.2596,170.3197,437.8908,175.1363,446.9873,177.9121" style="stroke:#000000;stroke-width:1;"/><text fill="#000000" font-family="sans-serif" font-size="13" lengthAdjust="spacing" textLength="56.2847" x="451.89" y="179.5469">contiene</text><text fill="#000000" font-family="sans-serif" font-size="13" lengthAdjust="spacing" textLength="8.271" x="378.5598" y="156.3894">1</text><text fill="#000000" font-family="sans-serif" font-size="13" lengthAdjust="spacing" textLength="8.271" x="481.441" y="211.7255">5</text></g><!--link Eliminatoria to Equipo--><g class="link" data-entity-1="Eliminatoria" data-entity-2="Equipo" data-source-line="72" data-uid="lnk12" id="link_Eliminatoria_Equipo"><path codeLine="72" d="M227.28,136.97 C220.03,151.83 216.98,167.86 222.89,183.48 C230.41,203.35 239.7316,217.3934 253.8916,233.0234" fill="none" id="Eliminatoria-to-Equipo" style="stroke:#000000;stroke-width:1;"/><polygon fill="#000000" points="257.92,237.47,254.8418,228.1145,254.563,233.7645,248.913,233.4857,257.92,237.47" style="stroke:#000000;stroke-width:1;"/><text fill="#000000" font-family="sans-serif" font-size="13" lengthAdjust="spacing" textLength="78.2285" x="223.89" y="179.5469">equipoLocal</text><text fill="#000000" font-family="sans-serif" font-size="13" lengthAdjust="spacing" textLength="8.271" x="212.8374" y="156.5438">1</text><text fill="#000000" font-family="sans-serif" font-size="13" lengthAdjust="spacing" textLength="8.271" x="242.0141" y="226.9664">1</text></g><!--link Eliminatoria to Equipo--><g class="link" data-entity-1="Eliminatoria" data-entity-2="Equipo" data-source-line="73" data-uid="lnk13" id="link_Eliminatoria_Equipo"><path codeLine="73" d="M301.75,136.77 C303.76,146.67 305.57,156.82 306.89,166.48 C310.06,189.73 311.3887,209.7334 312.1187,231.4834" fill="none" id="Eliminatoria-to-Equipo-1" style="stroke:#000000;stroke-width:1;"/><polygon fill="#000000" points="312.32,237.48,316.0158,228.3509,312.1523,232.4828,308.0204,228.6192,312.32,237.48" style="stroke:#000000;stroke-width:1;"/><text fill="#000000" font-family="sans-serif" font-size="13" lengthAdjust="spacing" textLength="101.5942" x="309.89" y="179.5469">equipoVisitante</text><text fill="#000000" font-family="sans-serif" font-size="13" lengthAdjust="spacing" textLength="8.271" x="295.0621" y="156.7769">1</text><text fill="#000000" font-family="sans-serif" font-size="13" lengthAdjust="spacing" textLength="8.271" x="303.7241" y="226.9777">1</text></g><!--link Eliminatoria to Superficie--><g class="link" data-entity-1="Eliminatoria" data-entity-2="Superficie" data-source-line="74" data-uid="lnk14" id="link_Eliminatoria_Superficie"><path codeLine="74" d="M220.19,136.83 C186.96,169.23 151.6251,203.7005 121.1251,233.4505" fill="none" id="Eliminatoria-to-Superficie" style="stroke:#000000;stroke-width:1;"/><polygon fill="#000000" points="116.83,237.64,126.0657,234.2192,120.4093,234.1487,120.4797,228.4923,116.83,237.64" style="stroke:#000000;stroke-width:1;"/></g><!--reverse link Partido to PartidoIndividual--><g class="link" data-entity-1="Partido" data-entity-2="PartidoIndividual" data-source-line="76" data-uid="lnk15" id="link_Partido_PartidoIndividual"><path codeLine="76" d="M533.065,374.9684 C521.525,394.2184 519.12,399.91 509.89,420.26 C493.52,456.35 480.3,499.64 471.9,530.4" fill="none" id="Partido-backto-PartidoIndividual" style="stroke:#000000;stroke-width:1;"/><polygon fill="none" points="542.32,359.53,527.9188,371.8834,538.2111,378.0534,542.32,359.53" style="stroke:#000000;stroke-width:1;"/></g><!--reverse link Partido to PartidoDobles--><g class="link" data-entity-1="Partido" data-entity-2="PartidoDobles" data-source-line="77" data-uid="lnk16" id="link_Partido_PartidoDobles"><path codeLine="77" d="M605.5302,377.1327 C609.1602,397.9627 609.89,402.18 613.03,420.21" fill="none" id="Partido-backto-PartidoDobles" style="stroke:#000000;stroke-width:1;"/><polygon fill="none" points="602.44,359.4,599.6193,378.1628,611.4412,376.1027,602.44,359.4" style="stroke:#000000;stroke-width:1;"/></g><!--link PartidoIndividual to Jugador--><g class="link" data-entity-1="PartidoIndividual" data-entity-2="Jugador" data-source-line="79" data-uid="lnk17" id="link_PartidoIndividual_Jugador"><path codeLine="79" d="M432.07,611.88 C426.44,621.16 421.26,631.31 417.89,641.45 C400.92,692.47 397.3487,747.6101 397.6587,792.6901" fill="none" id="PartidoIndividual-to-Jugador" style="stroke:#000000;stroke-width:1;"/><polygon fill="#000000" points="397.7,798.69,401.638,789.6627,397.6656,793.6901,393.6382,789.7177,397.7,798.69" style="stroke:#000000;stroke-width:1;"/><text fill="#000000" font-family="sans-serif" font-size="13" lengthAdjust="spacing" textLength="55.4595" x="418.89" y="686.3169">enfrenta</text><text fill="#000000" font-family="sans-serif" font-size="13" lengthAdjust="spacing" textLength="8.271" x="388.9289" y="787.8233">2</text></g><!--reverse link PartidoDobles to Pareja--><g class="link" data-entity-1="PartidoDobles" data-entity-2="Pareja" data-source-line="80" data-uid="lnk18" id="link_PartidoDobles_Pareja"><path codeLine="80" d="M625.544,513.1789 C629.874,552.7889 635.2,601.35 639.53,640.98" fill="none" id="PartidoDobles-backto-Pareja" style="stroke:#000000;stroke-width:1;"/><polygon fill="#000000" points="624.24,501.25,620.9157,507.6491,625.544,513.1789,628.8683,506.7798,624.24,501.25" style="stroke:#000000;stroke-width:1;"/><text fill="#000000" font-family="sans-serif" font-size="13" lengthAdjust="spacing" textLength="55.4595" x="636.89" y="575.7169">enfrenta</text><text fill="#000000" font-family="sans-serif" font-size="13" lengthAdjust="spacing" textLength="8.271" x="616.3173" y="521.0083">1</text><text fill="#000000" font-family="sans-serif" font-size="13" lengthAdjust="spacing" textLength="8.271" x="630.2197" y="630.3649">2</text></g><!--link Pareja to Jugador--><g class="link" data-entity-1="Pareja" data-entity-2="Jugador" data-source-line="81" data-uid="lnk19" id="link_Pareja_Jugador"><path codeLine="81" d="M590.26,722.48 C560.07,744.85 526.4713,769.7486 492.1413,795.1786" fill="none" id="Pareja-to-Jugador" style="stroke:#000000;stroke-width:1;"/><polygon fill="#000000" points="487.32,798.75,496.9329,796.6071,491.3378,795.7738,492.171,790.1787,487.32,798.75" style="stroke:#000000;stroke-width:1;"/><text fill="#000000" font-family="sans-serif" font-size="13" lengthAdjust="spacing" textLength="80.4058" x="544.89" y="765.1169">formada por</text><text fill="#000000" font-family="sans-serif" font-size="13" lengthAdjust="spacing" textLength="8.271" x="488.3511" y="787.8899">2</text></g><!--SRC=[hLJDRjD04BxxAKQvj51IGIKkLbNa_0WP8HGb0OxLn9wussvsm-wwI9G-LH-15sDih-rr4w4UoCNPRxwT-UPlJs2grLOKfS5C_7bIa1EGTKBgoDu9jKU3EyWaMfiuPyIcT9HcMgt4BuAtpodm407_9fZT5KQNAfzggGryln6ELZjzHurPcvnCOvf8vjPeOep-6OAFKNG2SrNko4kBY0-mAlTajY8JvADDvwl5V5R_NQVpvJAvdYJhT9RKo29ThPFhsTTbqlYRiao2-OzIx7NKQ6uEtjaObDvj32rGs1XMdB4gQiCPO66eGFEfB33NvlIs-SRWWLSnt6kHUt91pkDaJzdqMLXtwP6hK8h7l1P_UYPc86GC1XMNlOWXLSv3Myfky0kNQIT8EStnT8PoXevQHspJ2gN8CN-M5nEpKgAPiwcIMdaDQoNPgKAdZS2sOW7KIRLTN-AWHw6-L35oeAqNy15LNLdMqFJaGr_C9TbIEZPNre5yDYxGE95hspYmfrJVRhqSfeGRwtYc78A_6RM87sCFzsseXb1xDAnxBZ0yMdAs2LhdUDpqJLZXK3dgpMVmq2fuh18AAZ78DM2HJLKkxaLUegnu4wqbeGhJz7fxNZJ8hiTzdcV_2ltoU3EzaMI7iHhi_yMXM-m3yA7pp4-JunMWO-lPkZg-eRpnfjtGDp1SrIN9UdyuBVzQZDwDG8_7_3q_Vp_gzZQ6EZfSHOCTgTYlApPJszcAEwt7sEFnLVtruMAWVgnUpEucRNYZOWSR6hMABd-pnCEXEMRsFOuEHwcMSX5MXDJMyAE4qN0MkffSZDec3haLSkXjgyqESuIzDdy1]--></g></svg>