<svg xmlns="http://www.w3.org/2000/svg" xmlns:xlink="http://www.w3.org/1999/xlink" contentStyleType="text/css" data-diagram-type="CLASS" height="745px" preserveAspectRatio="none" style="width:622px;height:745px;background:#FFFFFF;" version="1.1" viewBox="0 0 622 745" width="622px" zoomAndPan="magnify"><defs/><g><!--class Persona--><g class="entity" data-entity="Persona" data-source-line="10" data-uid="ent0002" id="entity_Persona"><rect fill="#F5F5F5" height="113.1875" rx="2.5" ry="2.5" style="stroke:#000000;stroke-width:0.5;" width="214.6104" x="100.25" y="7"/><ellipse cx="175.2437" cy="23" fill="#A9DCDF" rx="11" ry="11" style="stroke:#181818;stroke-width:1;"/><path d="M175.353,18.3438 L174.1968,23.4219 L176.5249,23.4219 L175.353,18.3438 Z M173.8687,16.1094 L176.853,16.1094 L180.2124,28.5 L177.7593,28.5 L176.9937,25.4375 L173.7124,25.4375 L172.9624,28.5 L170.5249,28.5 L173.8687,16.1094 Z " fill="#000000"/><text fill="#000000" font-family="sans-serif" font-size="14" font-style="italic" lengthAdjust="spacing" textLength="56.123" x="195.7437" y="27.8467">Persona</text><line style="stroke:#000000;stroke-width:0.5;" x1="101.25" x2="313.8604" y1="39" y2="39"/><text fill="#000000" font-family="sans-serif" font-size="14" lengthAdjust="spacing" textLength="110.332" x="106.25" y="55.9951">-nombre: String</text><text fill="#000000" font-family="sans-serif" font-size="14" lengthAdjust="spacing" textLength="202.6104" x="106.25" y="72.292">-fechaNacimiento: LocalDate</text><text fill="#000000" font-family="sans-serif" font-size="14" lengthAdjust="spacing" textLength="145.1885" x="106.25" y="88.5889">-nacionalidad: String</text><line style="stroke:#000000;stroke-width:0.5;" x1="101.25" x2="313.8604" y1="95.8906" y2="95.8906"/><text fill="#000000" font-family="sans-serif" font-size="14" lengthAdjust="spacing" textLength="140.4717" x="106.25" y="112.8857">+calcularEdad(): Int</text></g><!--class Actor--><g class="entity" data-entity="Actor" data-source-line="18" data-uid="ent0003" id="entity_Actor"><rect fill="#F5F5F5" height="80.5938" rx="2.5" ry="2.5" style="stroke:#000000;stroke-width:0.5;" width="311.1201" x="7" y="275.48"/><ellipse cx="139.7676" cy="291.48" fill="#ADD1B2" rx="11" ry="11" style="stroke:#181818;stroke-width:1;"/><path d="M142.7363,297.1206 Q142.1582,297.4175 141.5176,297.5581 Q140.877,297.7144 140.1738,297.7144 Q137.6738,297.7144 136.3457,296.0738 Q135.0332,294.4175 135.0332,291.2925 Q135.0332,288.1675 136.3457,286.5113 Q137.6738,284.855 140.1738,284.855 Q140.877,284.855 141.5176,285.0113 Q142.1738,285.1675 142.7363,285.4644 L142.7363,288.1831 Q142.1113,287.605 141.5176,287.3394 Q140.9238,287.0581 140.2988,287.0581 Q138.9551,287.0581 138.2676,288.1363 Q137.5801,289.1988 137.5801,291.2925 Q137.5801,293.3863 138.2676,294.4644 Q138.9551,295.5269 140.2988,295.5269 Q140.9238,295.5269 141.5176,295.2613 Q142.1113,294.98 142.7363,294.4019 L142.7363,297.1206 Z " fill="#000000"/><text fill="#000000" font-family="sans-serif" font-size="14" lengthAdjust="spacing" textLength="37.085" x="160.2676" y="296.3267">Actor</text><line style="stroke:#000000;stroke-width:0.5;" x1="8" x2="317.1201" y1="307.48" y2="307.48"/><line style="stroke:#000000;stroke-width:0.5;" x1="8" x2="317.1201" y1="315.48" y2="315.48"/><text fill="#000000" font-family="sans-serif" font-size="14" lengthAdjust="spacing" textLength="217.7861" x="13" y="332.4751">+getPeliculas(): List&lt;Pelicula&gt;</text><text fill="#000000" font-family="sans-serif" font-size="14" lengthAdjust="spacing" textLength="299.1201" x="13" y="348.772">+getParticipaciones(): List&lt;Participacion&gt;</text></g><!--class Director--><g class="entity" data-entity="Director" data-source-line="24" data-uid="ent0004" id="entity_Director"><rect fill="#F5F5F5" height="64.2969" rx="2.5" ry="2.5" style="stroke:#000000;stroke-width:0.5;" width="291.6377" x="252.74" y="181.18"/><ellipse cx="366.0354" cy="197.18" fill="#ADD1B2" rx="11" ry="11" style="stroke:#181818;stroke-width:1;"/><path d="M369.0042,202.8206 Q368.426,203.1175 367.7854,203.2581 Q367.1448,203.4144 366.4417,203.4144 Q363.9417,203.4144 362.6135,201.7738 Q361.301,200.1175 361.301,196.9925 Q361.301,193.8675 362.6135,192.2113 Q363.9417,190.555 366.4417,190.555 Q367.1448,190.555 367.7854,190.7113 Q368.4417,190.8675 369.0042,191.1644 L369.0042,193.8831 Q368.3792,193.305 367.7854,193.0394 Q367.1917,192.7581 366.5667,192.7581 Q365.2229,192.7581 364.5354,193.8363 Q363.8479,194.8988 363.8479,196.9925 Q363.8479,199.0863 364.5354,200.1644 Q365.2229,201.2269 366.5667,201.2269 Q367.1917,201.2269 367.7854,200.9613 Q368.3792,200.68 369.0042,200.1019 L369.0042,202.8206 Z " fill="#000000"/><text fill="#000000" font-family="sans-serif" font-size="14" lengthAdjust="spacing" textLength="56.5469" x="386.5354" y="202.0267">Director</text><line style="stroke:#000000;stroke-width:0.5;" x1="253.74" x2="543.3777" y1="213.18" y2="213.18"/><line style="stroke:#000000;stroke-width:0.5;" x1="253.74" x2="543.3777" y1="221.18" y2="221.18"/><text fill="#000000" font-family="sans-serif" font-size="14" lengthAdjust="spacing" textLength="279.6377" x="258.74" y="238.1751">+getPeliculasDirigidas(): List&lt;Pelicula&gt;</text></g><!--class Pelicula--><g class="entity" data-entity="Pelicula" data-source-line="29" data-uid="ent0005" id="entity_Pelicula"><rect fill="#F5F5F5" height="162.0781" rx="2.5" ry="2.5" style="stroke:#000000;stroke-width:0.5;" width="407.2402" x="207.94" y="386.07"/><ellipse cx="380.3731" cy="402.07" fill="#ADD1B2" rx="11" ry="11" style="stroke:#181818;stroke-width:1;"/><path d="M383.3419,407.7106 Q382.7637,408.0075 382.1231,408.1481 Q381.4825,408.3044 380.7794,408.3044 Q378.2794,408.3044 376.9512,406.6638 Q375.6387,405.0075 375.6387,401.8825 Q375.6387,398.7575 376.9512,397.1013 Q378.2794,395.445 380.7794,395.445 Q381.4825,395.445 382.1231,395.6013 Q382.7794,395.7575 383.3419,396.0544 L383.3419,398.7731 Q382.7169,398.195 382.1231,397.9294 Q381.5294,397.6481 380.9044,397.6481 Q379.5606,397.6481 378.8731,398.7263 Q378.1856,399.7888 378.1856,401.8825 Q378.1856,403.9763 378.8731,405.0544 Q379.5606,406.1169 380.9044,406.1169 Q381.5294,406.1169 382.1231,405.8513 Q382.7169,405.57 383.3419,404.9919 L383.3419,407.7106 Z " fill="#000000"/><text fill="#000000" font-family="sans-serif" font-size="14" lengthAdjust="spacing" textLength="53.874" x="400.8731" y="406.9167">Pelicula</text><line style="stroke:#000000;stroke-width:0.5;" x1="208.94" x2="614.1802" y1="418.07" y2="418.07"/><text fill="#000000" font-family="sans-serif" font-size="14" lengthAdjust="spacing" textLength="92.1963" x="213.94" y="435.0651">-titulo: String</text><text fill="#000000" font-family="sans-serif" font-size="14" lengthAdjust="spacing" textLength="112.1641" x="213.94" y="451.362">-a&#241;oEstreno: Int</text><text fill="#000000" font-family="sans-serif" font-size="14" lengthAdjust="spacing" textLength="148.8936" x="213.94" y="467.6589">-duracionMinutos: Int</text><text fill="#000000" font-family="sans-serif" font-size="14" lengthAdjust="spacing" textLength="158.2314" x="213.94" y="483.9557">-idiomaOriginal: String</text><line style="stroke:#000000;stroke-width:0.5;" x1="208.94" x2="614.1802" y1="491.2575" y2="491.2575"/><text fill="#000000" font-family="sans-serif" font-size="14" lengthAdjust="spacing" textLength="395.2402" x="213.94" y="508.2526">+agregarActor(actor: Actor, papel: String): Participacion</text><text fill="#000000" font-family="sans-serif" font-size="14" lengthAdjust="spacing" textLength="248.5957" x="213.94" y="524.5495">+getReparto(): List&lt;Participacion&gt;</text><text fill="#000000" font-family="sans-serif" font-size="14" lengthAdjust="spacing" textLength="167.9043" x="213.94" y="540.8464">+getDirector(): Director</text></g><!--class Participacion--><g class="entity" data-entity="Participacion" data-source-line="40" data-uid="ent0006" id="entity_Participacion"><rect fill="#F5F5F5" height="113.1875" rx="2.5" ry="2.5" style="stroke:#000000;stroke-width:0.5;" width="174.5586" x="55.28" y="625.15"/><ellipse cx="93.8259" cy="641.15" fill="#ADD1B2" rx="11" ry="11" style="stroke:#181818;stroke-width:1;"/><path d="M96.7946,646.7906 Q96.2165,647.0875 95.5759,647.2281 Q94.9353,647.3844 94.2321,647.3844 Q91.7321,647.3844 90.404,645.7438 Q89.0915,644.0875 89.0915,640.9625 Q89.0915,637.8375 90.404,636.1813 Q91.7321,634.525 94.2321,634.525 Q94.9353,634.525 95.5759,634.6813 Q96.2321,634.8375 96.7946,635.1344 L96.7946,637.8531 Q96.1696,637.275 95.5759,637.0094 Q94.9821,636.7281 94.3571,636.7281 Q93.0134,636.7281 92.3259,637.8063 Q91.6384,638.8688 91.6384,640.9625 Q91.6384,643.0563 92.3259,644.1344 Q93.0134,645.1969 94.3571,645.1969 Q94.9821,645.1969 95.5759,644.9313 Q96.1696,644.65 96.7946,644.0719 L96.7946,646.7906 Z " fill="#000000"/><text fill="#000000" font-family="sans-serif" font-size="14" lengthAdjust="spacing" textLength="90.2344" x="113.0583" y="645.9967">Participacion</text><line style="stroke:#000000;stroke-width:0.5;" x1="56.28" x2="228.8386" y1="657.15" y2="657.15"/><text fill="#000000" font-family="sans-serif" font-size="14" lengthAdjust="spacing" textLength="94.8555" x="61.28" y="674.1451">-papel: String</text><line style="stroke:#000000;stroke-width:0.5;" x1="56.28" x2="228.8386" y1="681.4469" y2="681.4469"/><text fill="#000000" font-family="sans-serif" font-size="14" lengthAdjust="spacing" textLength="128.9805" x="61.28" y="698.442">+getActor(): Actor</text><text fill="#000000" font-family="sans-serif" font-size="14" lengthAdjust="spacing" textLength="162.5586" x="61.28" y="714.7389">+getPelicula(): Pelicula</text><text fill="#000000" font-family="sans-serif" font-size="14" lengthAdjust="spacing" textLength="135.0029" x="61.28" y="731.0357">+getPapel(): String</text></g><!--reverse link Persona to Actor--><g class="link" data-entity-1="Persona" data-entity-2="Actor" data-source-line="48" data-uid="lnk7" id="link_Persona_Actor"><path codeLine="48" d="M194.331,138.1452 C185.881,185.0852 177.21,233.33 169.71,275.05" fill="none" id="Persona-backto-Actor" style="stroke:#000000;stroke-width:1;"/><polygon fill="none" points="197.52,120.43,188.4259,137.0822,200.236,139.2083,197.52,120.43" style="stroke:#000000;stroke-width:1;"/></g><!--reverse link Persona to Director--><g class="link" data-entity-1="Persona" data-entity-2="Director" data-source-line="49" data-uid="lnk8" id="link_Persona_Director"><path codeLine="49" d="M294.2798,131.6704 C320.5598,151.9904 335.07,163.22 357.67,180.7" fill="none" id="Persona-backto-Director" style="stroke:#000000;stroke-width:1;"/><polygon fill="none" points="280.04,120.66,290.6097,136.417,297.9499,126.9238,280.04,120.66" style="stroke:#000000;stroke-width:1;"/></g><!--link Director to Pelicula--><g class="link" data-entity-1="Director" data-entity-2="Pelicula" data-source-line="51" data-uid="lnk9" id="link_Director_Pelicula"><path codeLine="51" d="M400.19,245.97 C401.99,280.83 404.96,338.27 407.41,385.74" fill="none" id="Director-Pelicula" style="stroke:#000000;stroke-width:1;"/><polygon fill="#000000" points="411.8179,320.8397,414.2863,311.6551,408.4163,311.9583,411.8179,320.8397" style="stroke:#000000;stroke-width:1;"/><text fill="#000000" font-family="sans-serif" font-size="13" lengthAdjust="spacing" textLength="37.0703" x="420.56" y="320.3469">dirige</text><text fill="#000000" font-family="sans-serif" font-size="13" lengthAdjust="spacing" textLength="50.7495" x="346.5253" y="265.6509">director</text><text fill="#000000" font-family="sans-serif" font-size="13" lengthAdjust="spacing" textLength="8.271" x="367.7646" y="280.7837">1</text><text fill="#000000" font-family="sans-serif" font-size="13" lengthAdjust="spacing" textLength="114.645" x="316.3214" y="360.0554">peliculasDirigidas</text><text fill="#000000" font-family="sans-serif" font-size="13" lengthAdjust="spacing" textLength="23.0356" x="362.1261" y="375.1882">0..*</text></g><!--link Actor to Participacion--><g class="link" data-entity-1="Actor" data-entity-2="Participacion" data-source-line="53" data-uid="lnk10" id="link_Actor_Participacion"><path codeLine="53" d="M141.39,356.48 C137.33,365.93 133.68,376.15 131.56,386.07 C114.11,467.81 123.39,565.13 132.4,624.92" fill="none" id="Actor-Participacion" style="stroke:#000000;stroke-width:1;"/><text fill="#000000" font-family="sans-serif" font-size="13" lengthAdjust="spacing" textLength="57.2495" x="132.56" y="471.6769">participa</text><text fill="#000000" font-family="sans-serif" font-size="13" lengthAdjust="spacing" textLength="33.5093" x="103.3623" y="376.0498">actor</text><text fill="#000000" font-family="sans-serif" font-size="13" lengthAdjust="spacing" textLength="8.271" x="115.9814" y="391.1827">1</text><text fill="#000000" font-family="sans-serif" font-size="13" lengthAdjust="spacing" textLength="23.0356" x="106.7624" y="614.1555">0..*</text></g><!--link Pelicula to Participacion--><g class="link" data-entity-1="Pelicula" data-entity-2="Participacion" data-source-line="54" data-uid="lnk11" id="link_Pelicula_Participacion"><path codeLine="54" d="M309.86,548.5 C277.73,573.9 242.93,601.41 213.43,624.72" fill="none" id="Pelicula-Participacion" style="stroke:#000000;stroke-width:1;"/><text fill="#000000" font-family="sans-serif" font-size="13" lengthAdjust="spacing" textLength="32.9443" x="270.56" y="591.2169">tiene</text><text fill="#000000" font-family="sans-serif" font-size="13" lengthAdjust="spacing" textLength="50.4385" x="303.7654" y="568.2586">pelicula</text><text fill="#000000" font-family="sans-serif" font-size="13" lengthAdjust="spacing" textLength="8.271" x="324.8492" y="583.3914">1</text><text fill="#000000" font-family="sans-serif" font-size="13" lengthAdjust="spacing" textLength="47.9565" x="171.6635" y="598.9238">reparto</text><text fill="#000000" font-family="sans-serif" font-size="13" lengthAdjust="spacing" textLength="23.0356" x="184.1239" y="614.0566">1..*</text></g><!--SRC=[TLDDRzim3BthLn2-D5sNehiQHO0qxQ50jnNDOPTU69brXTYY8SaOi8yVDUmdz8zDjYH7JZCV38jy91-VdizWm_f5rRr1gTx-QgW8o3hLiB1xfJiqs89iqDgrSqRjUaVtalLM_I2uEeR0Jm7-kK6vhmttkjfmmmQ-lIf7svRt5D9iAZ8XTTDux1XT6yFVy-1l8SvWuziIuCuwpyyXF9Anh56aI9mRmt7-4ZItEqCbR3rbNSVW2ybN_EBNR1LfnoKyiCJc5XsbAf_pNHfLOJMhlG0Fb7s3viwd5kSbt6kN4rnBnqO4BkDtP781DRb7QjHGR8V21sNTTOgiCX0QfwJgHWgKGVFuAfzvgmnbOzFnv6IVLBLVwnI5h6KAYgHgE4woEkNwXezanRS_VETlWpG7NKAu6Xt5-hFIlMERfrIbkCMl0oMlzf7IM1kgqOmgBd1ubq7IZz1XHnFSBpBJvh3r4tbBElwVX1CkAJO09p5pDV8wMA1bgS9FSfu4cY6IIZEQXt7hD2kOvTqb3Qdf0Z9V-6P3AhOR-JrH4tqYalElVosNiVCiD2qc9eCKLVnwrfyAy9YYU-UJPtrrUVcXE5YWX6h84Qo420ulSDOZucUAbD2bivWwJTEcKXCkp9zFzd3-TwL_]--></g></svg>